<?xml version="1.0" encoding="UTF-8" standalone="no"?>
<!DOCTYPE svg PUBLIC "-//W3C//DTD SVG 1.1//EN"
 "http://www.w3.org/Graphics/SVG/1.1/DTD/svg11.dtd">
<!-- Generated by graphviz version 14.1.5 (0)
 -->
<!-- Title: final Pages: 1 -->
<svg width="1223pt" height="984pt"
 viewBox="0.00 0.00 1223.00 984.00" xmlns="http://www.w3.org/2000/svg" xmlns:xlink="http://www.w3.org/1999/xlink">
<g id="graph0" class="graph" transform="scale(1 1) rotate(0) translate(4 980.3)">
<title>final</title>
<polygon fill="white" stroke="none" points="-4,4 -4,-980.3 1218.5,-980.3 1218.5,4 -4,4"/>
<g id="clust1" class="cluster">
<title>cluster_ground</title>
<polygon fill="none" stroke="#888888" stroke-dasharray="5,2" points="8,-8 8,-968.3 584,-968.3 584,-8 8,-8"/>
<text xml:space="preserve" text-anchor="middle" x="296" y="-951" font-family="Times,serif" font-size="14.00">Ground</text>
</g>
<g id="clust5" class="cluster">
<title>cluster_air</title>
<polygon fill="none" stroke="#888888" stroke-dasharray="5,2" points="592,-84.8 592,-410.5 733,-410.5 733,-84.8 592,-84.8"/>
<text xml:space="preserve" text-anchor="middle" x="662.5" y="-393.2" font-family="Times,serif" font-size="14.00">Air</text>
</g>
<g id="clust6" class="cluster">
<title>cluster_action</title>
<polygon fill="none" stroke="#888888" stroke-dasharray="5,2" points="936,-8 936,-612.6 1046,-612.6 1046,-8 936,-8"/>
<text xml:space="preserve" text-anchor="middle" x="991" y="-595.3" font-family="Times,serif" font-size="14.00">Action</text>
</g>
<g id="clust7" class="cluster">
<title>cluster_hurt</title>
<polygon fill="none" stroke="red" stroke-dasharray="5,2" points="592,-719.4 592,-968.3 703,-968.3 703,-719.4 592,-719.4"/>
<text xml:space="preserve" text-anchor="middle" x="647.5" y="-951" font-family="Times,serif" font-size="14.00">Hurt (Global)</text>
</g>
<!-- Idle -->
<g id="node1" class="node">
<title>Idle</title>
<path fill="none" stroke="black" d="M100.2,-679.4C100.2,-679.4 25.8,-679.4 25.8,-679.4 21,-679.4 16.2,-674.6 16.2,-669.8 16.2,-669.8 16.2,-660.2 16.2,-660.2 16.2,-655.4 21,-650.6 25.8,-650.6 25.8,-650.6 100.2,-650.6 100.2,-650.6 105,-650.6 109.8,-655.4 109.8,-660.2 109.8,-660.2 109.8,-669.8 109.8,-669.8 109.8,-674.6 105,-679.4 100.2,-679.4"/>
<text xml:space="preserve" text-anchor="middle" x="63" y="-662.82" font-family="monospace" font-size="9.00">Idle</text>
</g>
<!-- Start_Walk -->
<g id="node2" class="node">
<title>Start_Walk</title>
<path fill="none" stroke="black" d="M254.2,-679.4C254.2,-679.4 179.8,-679.4 179.8,-679.4 175,-679.4 170.2,-674.6 170.2,-669.8 170.2,-669.8 170.2,-660.2 170.2,-660.2 170.2,-655.4 175,-650.6 179.8,-650.6 179.8,-650.6 254.2,-650.6 254.2,-650.6 259,-650.6 263.8,-655.4 263.8,-660.2 263.8,-660.2 263.8,-669.8 263.8,-669.8 263.8,-674.6 259,-679.4 254.2,-679.4"/>
<text xml:space="preserve" text-anchor="middle" x="217" y="-662.82" font-family="monospace" font-size="9.00">Start_Walk</text>
</g>
<!-- Idle&#45;&gt;Start_Walk -->
<g id="edge1" class="edge">
<title>Idle&#45;&gt;Start_Walk</title>
<path fill="none" stroke="black" d="M110.04,-672C110.04,-672 158.2,-672 158.2,-672"/>
<polygon fill="black" stroke="black" points="158.2,-675.5 168.2,-672 158.2,-668.5 158.2,-675.5"/>
</g>
<!-- Start_Run -->
<g id="node5" class="node">
<title>Start_Run</title>
<path fill="none" stroke="black" d="M256.2,-554.1C256.2,-554.1 181.8,-554.1 181.8,-554.1 177,-554.1 172.2,-549.3 172.2,-544.5 172.2,-544.5 172.2,-534.9 172.2,-534.9 172.2,-530.1 177,-525.3 181.8,-525.3 181.8,-525.3 256.2,-525.3 256.2,-525.3 261,-525.3 265.8,-530.1 265.8,-534.9 265.8,-534.9 265.8,-544.5 265.8,-544.5 265.8,-549.3 261,-554.1 256.2,-554.1"/>
<text xml:space="preserve" text-anchor="middle" x="219" y="-537.52" font-family="monospace" font-size="9.00">Start_Run</text>
</g>
<!-- Idle&#45;&gt;Start_Run -->
<g id="edge5" class="edge">
<title>Idle&#45;&gt;Start_Run</title>
<path fill="none" stroke="black" d="M98.1,-650.17C98.1,-617.06 98.1,-540 98.1,-540 98.1,-540 160.4,-540 160.4,-540"/>
<polygon fill="black" stroke="black" points="160.4,-543.5 170.4,-540 160.4,-536.5 160.4,-543.5"/>
<text xml:space="preserve" text-anchor="middle" x="207" y="-625" font-family="monospace" font-size="8.00">sprint+input</text>
</g>
<!-- Jump_Windup -->
<g id="node15" class="node">
<title>Jump_Windup</title>
<path fill="none" stroke="black" d="M702.2,-352C702.2,-352 627.8,-352 627.8,-352 623,-352 618.2,-347.2 618.2,-342.4 618.2,-342.4 618.2,-332.8 618.2,-332.8 618.2,-328 623,-323.2 627.8,-323.2 627.8,-323.2 702.2,-323.2 702.2,-323.2 707,-323.2 711.8,-328 711.8,-332.8 711.8,-332.8 711.8,-342.4 711.8,-342.4 711.8,-347.2 707,-352 702.2,-352"/>
<text xml:space="preserve" text-anchor="middle" x="665" y="-335.42" font-family="monospace" font-size="9.00">Jump_Windup</text>
</g>
<!-- Idle&#45;&gt;Jump_Windup -->
<g id="edge19" class="edge">
<title>Idle&#45;&gt;Jump_Windup</title>
<path fill="none" stroke="black" d="M63,-650.3C63,-609.18 63,-496 63,-496 63,-496 656,-496 656,-496 656,-496 656,-363.73 656,-363.73"/>
<polygon fill="black" stroke="black" points="659.5,-363.73 656,-353.73 652.5,-363.73 659.5,-363.73"/>
<text xml:space="preserve" text-anchor="middle" x="786" y="-499.7" font-family="monospace" font-size="8.00">jump</text>
</g>
<!-- Interact -->
<g id="node21" class="node">
<title>Interact</title>
<path fill="none" stroke="black" d="M1028.2,-554.1C1028.2,-554.1 953.8,-554.1 953.8,-554.1 949,-554.1 944.2,-549.3 944.2,-544.5 944.2,-544.5 944.2,-534.9 944.2,-534.9 944.2,-530.1 949,-525.3 953.8,-525.3 953.8,-525.3 1028.2,-525.3 1028.2,-525.3 1033,-525.3 1037.8,-530.1 1037.8,-534.9 1037.8,-534.9 1037.8,-544.5 1037.8,-544.5 1037.8,-549.3 1033,-554.1 1028.2,-554.1"/>
<text xml:space="preserve" text-anchor="middle" x="991" y="-537.52" font-family="monospace" font-size="9.00">Interact</text>
</g>
<!-- Idle&#45;&gt;Interact -->
<g id="edge43" class="edge">
<title>Idle&#45;&gt;Interact</title>
<path fill="none" stroke="black" d="M51.3,-650.35C51.3,-642.74 51.3,-635 51.3,-635 51.3,-635 1006.6,-635 1006.6,-635 1006.6,-635 1006.6,-566.1 1006.6,-566.1"/>
<polygon fill="black" stroke="black" points="1010.1,-566.1 1006.6,-556.1 1003.1,-566.1 1010.1,-566.1"/>
<text xml:space="preserve" text-anchor="middle" x="804.75" y="-625" font-family="monospace" font-size="8.00">trigger</text>
</g>
<!-- Walk -->
<g id="node3" class="node">
<title>Walk</title>
<path fill="none" stroke="black" d="M412.2,-679.4C412.2,-679.4 337.8,-679.4 337.8,-679.4 333,-679.4 328.2,-674.6 328.2,-669.8 328.2,-669.8 328.2,-660.2 328.2,-660.2 328.2,-655.4 333,-650.6 337.8,-650.6 337.8,-650.6 412.2,-650.6 412.2,-650.6 417,-650.6 421.8,-655.4 421.8,-660.2 421.8,-660.2 421.8,-669.8 421.8,-669.8 421.8,-674.6 417,-679.4 412.2,-679.4"/>
<text xml:space="preserve" text-anchor="middle" x="375" y="-662.82" font-family="monospace" font-size="9.00">Walk</text>
</g>
<!-- Start_Walk&#45;&gt;Walk -->
<g id="edge2" class="edge">
<title>Start_Walk&#45;&gt;Walk</title>
<path fill="none" stroke="black" d="M263.98,-670C263.98,-670 316.42,-670 316.42,-670"/>
<polygon fill="black" stroke="black" points="316.42,-673.5 326.42,-670 316.42,-666.5 316.42,-673.5"/>
</g>
<!-- Stop_Walk -->
<g id="node4" class="node">
<title>Stop_Walk</title>
<path fill="none" stroke="black" d="M566.2,-679.4C566.2,-679.4 491.8,-679.4 491.8,-679.4 487,-679.4 482.2,-674.6 482.2,-669.8 482.2,-669.8 482.2,-660.2 482.2,-660.2 482.2,-655.4 487,-650.6 491.8,-650.6 491.8,-650.6 566.2,-650.6 566.2,-650.6 571,-650.6 575.8,-655.4 575.8,-660.2 575.8,-660.2 575.8,-669.8 575.8,-669.8 575.8,-674.6 571,-679.4 566.2,-679.4"/>
<text xml:space="preserve" text-anchor="middle" x="529" y="-662.82" font-family="monospace" font-size="9.00">Stop_Walk</text>
</g>
<!-- Walk&#45;&gt;Stop_Walk -->
<g id="edge3" class="edge">
<title>Walk&#45;&gt;Stop_Walk</title>
<path fill="none" stroke="black" d="M422.04,-665C422.04,-665 470.2,-665 470.2,-665"/>
<polygon fill="black" stroke="black" points="470.2,-668.5 480.2,-665 470.2,-661.5 470.2,-668.5"/>
</g>
<!-- Run -->
<g id="node6" class="node">
<title>Run</title>
<path fill="none" stroke="black" d="M565.2,-554.1C565.2,-554.1 490.8,-554.1 490.8,-554.1 486,-554.1 481.2,-549.3 481.2,-544.5 481.2,-544.5 481.2,-534.9 481.2,-534.9 481.2,-530.1 486,-525.3 490.8,-525.3 490.8,-525.3 565.2,-525.3 565.2,-525.3 570,-525.3 574.8,-530.1 574.8,-534.9 574.8,-534.9 574.8,-544.5 574.8,-544.5 574.8,-549.3 570,-554.1 565.2,-554.1"/>
<text xml:space="preserve" text-anchor="middle" x="528" y="-537.52" font-family="monospace" font-size="9.00">Run</text>
</g>
<!-- Walk&#45;&gt;Run -->
<g id="edge7" class="edge">
<title>Walk&#45;&gt;Run</title>
<path fill="none" stroke="black" d="M415.2,-650.31C415.2,-619.09 415.2,-549 415.2,-549 415.2,-549 469.3,-549 469.3,-549"/>
<polygon fill="black" stroke="black" points="469.3,-552.5 479.3,-549 469.3,-545.5 469.3,-552.5"/>
<text xml:space="preserve" text-anchor="middle" x="562.5" y="-625" font-family="monospace" font-size="8.00">sprint</text>
</g>
<!-- Walk&#45;&gt;Jump_Windup -->
<g id="edge20" class="edge">
<title>Walk&#45;&gt;Jump_Windup</title>
<path fill="none" stroke="black" d="M402,-650.17C402,-612.48 402,-516 402,-516 402,-516 674.9,-516 674.9,-516 674.9,-516 674.9,-363.71 674.9,-363.71"/>
<polygon fill="black" stroke="black" points="678.4,-363.71 674.9,-353.71 671.4,-363.71 678.4,-363.71"/>
<text xml:space="preserve" text-anchor="middle" x="909" y="-499.7" font-family="monospace" font-size="8.00">jump</text>
</g>
<!-- Fall -->
<g id="node18" class="node">
<title>Fall</title>
<path fill="none" stroke="black" d="M715.2,-121.6C715.2,-121.6 640.8,-121.6 640.8,-121.6 636,-121.6 631.2,-116.8 631.2,-112 631.2,-112 631.2,-102.4 631.2,-102.4 631.2,-97.6 636,-92.8 640.8,-92.8 640.8,-92.8 715.2,-92.8 715.2,-92.8 720,-92.8 724.8,-97.6 724.8,-102.4 724.8,-102.4 724.8,-112 724.8,-112 724.8,-116.8 720,-121.6 715.2,-121.6"/>
<text xml:space="preserve" text-anchor="middle" x="678" y="-105.02" font-family="monospace" font-size="9.00">Fall</text>
</g>
<!-- Walk&#45;&gt;Fall -->
<g id="edge26" class="edge">
<title>Walk&#45;&gt;Fall</title>
<path fill="none" stroke="black" d="M395.4,-650.14C395.4,-627.26 395.4,-586 395.4,-586 395.4,-586 715.05,-586 715.05,-586 715.05,-586 715.05,-133.57 715.05,-133.57"/>
<polygon fill="black" stroke="black" points="718.55,-133.57 715.05,-123.57 711.55,-133.57 718.55,-133.57"/>
<text xml:space="preserve" text-anchor="middle" x="901.5" y="-336" font-family="monospace" font-size="8.00">!floor</text>
</g>
<!-- Stop_Walk&#45;&gt;Idle -->
<g id="edge4" class="edge">
<title>Stop_Walk&#45;&gt;Idle</title>
<path fill="none" stroke="black" d="M529,-679.58C529,-690.3 529,-703 529,-703 529,-703 91.08,-703 91.08,-703 91.08,-703 91.08,-691.1 91.08,-691.1"/>
<polygon fill="black" stroke="black" points="94.58,-691.1 91.08,-681.1 87.58,-691.1 94.58,-691.1"/>
<text xml:space="preserve" text-anchor="middle" x="435" y="-701.8" font-family="monospace" font-size="8.00">anim end</text>
</g>
<!-- Start_Run&#45;&gt;Run -->
<g id="edge6" class="edge">
<title>Start_Run&#45;&gt;Run</title>
<path fill="none" stroke="black" d="M258.93,-524.82C258.93,-515.79 258.93,-506 258.93,-506 258.93,-506 502.85,-506 502.85,-506 502.85,-506 502.85,-513.31 502.85,-513.31"/>
<polygon fill="black" stroke="black" points="499.35,-513.31 502.85,-523.31 506.35,-513.31 499.35,-513.31"/>
<text xml:space="preserve" text-anchor="middle" x="378" y="-625" font-family="monospace" font-size="8.00">anim end</text>
</g>
<!-- Run&#45;&gt;Walk -->
<g id="edge8" class="edge">
<title>Run&#45;&gt;Walk</title>
<path fill="none" stroke="black" d="M480.81,-544C447.44,-544 408.6,-544 408.6,-544 408.6,-544 408.6,-638.65 408.6,-638.65"/>
<polygon fill="black" stroke="black" points="405.1,-638.65 408.6,-648.65 412.1,-638.65 405.1,-638.65"/>
<text xml:space="preserve" text-anchor="middle" x="498.75" y="-625" font-family="monospace" font-size="8.00">release</text>
</g>
<!-- Stop_Run -->
<g id="node7" class="node">
<title>Stop_Run</title>
<path fill="none" stroke="black" d="M379.2,-554.1C379.2,-554.1 304.8,-554.1 304.8,-554.1 300,-554.1 295.2,-549.3 295.2,-544.5 295.2,-544.5 295.2,-534.9 295.2,-534.9 295.2,-530.1 300,-525.3 304.8,-525.3 304.8,-525.3 379.2,-525.3 379.2,-525.3 384,-525.3 388.8,-530.1 388.8,-534.9 388.8,-534.9 388.8,-544.5 388.8,-544.5 388.8,-549.3 384,-554.1 379.2,-554.1"/>
<text xml:space="preserve" text-anchor="middle" x="342" y="-537.52" font-family="monospace" font-size="9.00">Stop_Run</text>
</g>
<!-- Run&#45;&gt;Stop_Run -->
<g id="edge9" class="edge">
<title>Run&#45;&gt;Stop_Run</title>
<path fill="none" stroke="black" d="M481.06,-540C481.06,-540 400.76,-540 400.76,-540"/>
<polygon fill="black" stroke="black" points="400.76,-536.5 390.76,-540 400.76,-543.5 400.76,-536.5"/>
</g>
<!-- Sprint -->
<g id="node8" class="node">
<title>Sprint</title>
<path fill="none" stroke="black" d="M558.2,-477.3C558.2,-477.3 483.8,-477.3 483.8,-477.3 479,-477.3 474.2,-472.5 474.2,-467.7 474.2,-467.7 474.2,-458.1 474.2,-458.1 474.2,-453.3 479,-448.5 483.8,-448.5 483.8,-448.5 558.2,-448.5 558.2,-448.5 563,-448.5 567.8,-453.3 567.8,-458.1 567.8,-458.1 567.8,-467.7 567.8,-467.7 567.8,-472.5 563,-477.3 558.2,-477.3"/>
<text xml:space="preserve" text-anchor="middle" x="521" y="-460.72" font-family="monospace" font-size="9.00">Sprint</text>
</g>
<!-- Run&#45;&gt;Sprint -->
<g id="edge11" class="edge">
<title>Run&#45;&gt;Sprint</title>
<path fill="none" stroke="black" d="M524.5,-524.89C524.5,-524.89 524.5,-489.18 524.5,-489.18"/>
<polygon fill="black" stroke="black" points="528,-489.18 524.5,-479.18 521,-489.18 528,-489.18"/>
<text xml:space="preserve" text-anchor="middle" x="496.5" y="-499.7" font-family="monospace" font-size="8.00">sprint</text>
</g>
<!-- Pivot_Run -->
<g id="node10" class="node">
<title>Pivot_Run</title>
<path fill="none" stroke="black" d="M419.2,-477.3C419.2,-477.3 344.8,-477.3 344.8,-477.3 340,-477.3 335.2,-472.5 335.2,-467.7 335.2,-467.7 335.2,-458.1 335.2,-458.1 335.2,-453.3 340,-448.5 344.8,-448.5 344.8,-448.5 419.2,-448.5 419.2,-448.5 424,-448.5 428.8,-453.3 428.8,-458.1 428.8,-458.1 428.8,-467.7 428.8,-467.7 428.8,-472.5 424,-477.3 419.2,-477.3"/>
<text xml:space="preserve" text-anchor="middle" x="382" y="-460.72" font-family="monospace" font-size="9.00">Pivot_Run</text>
</g>
<!-- Run&#45;&gt;Pivot_Run -->
<g id="edge15" class="edge">
<title>Run&#45;&gt;Pivot_Run</title>
<path fill="none" stroke="black" d="M480.93,-535C453.45,-535 424.13,-535 424.13,-535 424.13,-535 424.13,-489 424.13,-489"/>
<polygon fill="black" stroke="black" points="427.63,-489 424.13,-479 420.63,-489 427.63,-489"/>
<text xml:space="preserve" text-anchor="middle" x="333" y="-499.7" font-family="monospace" font-size="8.00">180°</text>
</g>
<!-- Run&#45;&gt;Jump_Windup -->
<g id="edge21" class="edge">
<title>Run&#45;&gt;Jump_Windup</title>
<path fill="none" stroke="black" d="M572.47,-524.87C572.47,-478.29 572.47,-338 572.47,-338 572.47,-338 606.41,-338 606.41,-338"/>
<polygon fill="black" stroke="black" points="606.41,-341.5 616.41,-338 606.41,-334.5 606.41,-341.5"/>
<text xml:space="preserve" text-anchor="middle" x="670" y="-461.3" font-family="monospace" font-size="8.00">jump</text>
</g>
<!-- Run&#45;&gt;Fall -->
<g id="edge27" class="edge">
<title>Run&#45;&gt;Fall</title>
<path fill="none" stroke="black" d="M570.13,-525.12C570.13,-450.61 570.13,-116 570.13,-116 570.13,-116 619.49,-116 619.49,-116"/>
<polygon fill="black" stroke="black" points="619.49,-119.5 629.49,-116 619.49,-112.5 619.49,-119.5"/>
<text xml:space="preserve" text-anchor="middle" x="841.5" y="-297.6" font-family="monospace" font-size="8.00">!floor</text>
</g>
<!-- Vault -->
<g id="node20" class="node">
<title>Vault</title>
<path fill="none" stroke="black" d="M1028.2,-352C1028.2,-352 953.8,-352 953.8,-352 949,-352 944.2,-347.2 944.2,-342.4 944.2,-342.4 944.2,-332.8 944.2,-332.8 944.2,-328 949,-323.2 953.8,-323.2 953.8,-323.2 1028.2,-323.2 1028.2,-323.2 1033,-323.2 1037.8,-328 1037.8,-332.8 1037.8,-332.8 1037.8,-342.4 1037.8,-342.4 1037.8,-347.2 1033,-352 1028.2,-352"/>
<text xml:space="preserve" text-anchor="middle" x="991" y="-335.42" font-family="monospace" font-size="9.00">Vault</text>
</g>
<!-- Run&#45;&gt;Vault -->
<g id="edge39" class="edge">
<title>Run&#45;&gt;Vault</title>
<path fill="none" stroke="black" d="M574.85,-544C632.13,-544 721.55,-544 721.55,-544 721.55,-544 721.55,-342 721.55,-342 721.55,-342 932.24,-342 932.24,-342"/>
<polygon fill="black" stroke="black" points="932.24,-345.5 942.24,-342 932.24,-338.5 932.24,-345.5"/>
<text xml:space="preserve" text-anchor="middle" x="1024.25" y="-461.3" font-family="monospace" font-size="8.00">waist hit</text>
</g>
<!-- Stop_Run&#45;&gt;Idle -->
<g id="edge10" class="edge">
<title>Stop_Run&#45;&gt;Idle</title>
<path fill="none" stroke="black" d="M311.7,-554.49C311.7,-562.19 311.7,-570 311.7,-570 311.7,-570 74.7,-570 74.7,-570 74.7,-570 74.7,-638.64 74.7,-638.64"/>
<polygon fill="black" stroke="black" points="71.2,-638.64 74.7,-648.64 78.2,-638.64 71.2,-638.64"/>
<text xml:space="preserve" text-anchor="middle" x="320" y="-625" font-family="monospace" font-size="8.00">anim end</text>
</g>
<!-- Sprint&#45;&gt;Run -->
<g id="edge12" class="edge">
<title>Sprint&#45;&gt;Run</title>
<path fill="none" stroke="black" d="M546.15,-477.71C546.15,-477.71 546.15,-513.42 546.15,-513.42"/>
<polygon fill="black" stroke="black" points="542.65,-513.42 546.15,-523.42 549.65,-513.42 542.65,-513.42"/>
<text xml:space="preserve" text-anchor="middle" x="559.75" y="-499.7" font-family="monospace" font-size="8.00">release</text>
</g>
<!-- Stop_Sprint -->
<g id="node9" class="node">
<title>Stop_Sprint</title>
<path fill="none" stroke="black" d="M218.2,-477.3C218.2,-477.3 143.8,-477.3 143.8,-477.3 139,-477.3 134.2,-472.5 134.2,-467.7 134.2,-467.7 134.2,-458.1 134.2,-458.1 134.2,-453.3 139,-448.5 143.8,-448.5 143.8,-448.5 218.2,-448.5 218.2,-448.5 223,-448.5 227.8,-453.3 227.8,-458.1 227.8,-458.1 227.8,-467.7 227.8,-467.7 227.8,-472.5 223,-477.3 218.2,-477.3"/>
<text xml:space="preserve" text-anchor="middle" x="181" y="-460.72" font-family="monospace" font-size="9.00">Stop_Sprint</text>
</g>
<!-- Sprint&#45;&gt;Stop_Sprint -->
<g id="edge13" class="edge">
<title>Sprint&#45;&gt;Stop_Sprint</title>
<path fill="none" stroke="black" d="M477.7,-477.75C477.7,-482.71 477.7,-487 477.7,-487 477.7,-487 200,-487 200,-487 200,-487 200,-486.08 200,-486.08"/>
<polygon fill="black" stroke="black" points="203.5,-489.26 200,-479.26 196.5,-489.26 203.5,-489.26"/>
<text xml:space="preserve" text-anchor="middle" x="363" y="-499.7" font-family="monospace" font-size="8.00">input=0</text>
</g>
<!-- Pivot_Sprint -->
<g id="node11" class="node">
<title>Pivot_Sprint</title>
<path fill="none" stroke="black" d="M479.2,-352C479.2,-352 404.8,-352 404.8,-352 400,-352 395.2,-347.2 395.2,-342.4 395.2,-342.4 395.2,-332.8 395.2,-332.8 395.2,-328 400,-323.2 404.8,-323.2 404.8,-323.2 479.2,-323.2 479.2,-323.2 484,-323.2 488.8,-328 488.8,-332.8 488.8,-332.8 488.8,-342.4 488.8,-342.4 488.8,-347.2 484,-352 479.2,-352"/>
<text xml:space="preserve" text-anchor="middle" x="442" y="-335.42" font-family="monospace" font-size="9.00">Pivot_Sprint</text>
</g>
<!-- Sprint&#45;&gt;Pivot_Sprint -->
<g id="edge17" class="edge">
<title>Sprint&#45;&gt;Pivot_Sprint</title>
<path fill="none" stroke="black" d="M479.07,-448.03C479.07,-448.03 479.07,-363.96 479.07,-363.96"/>
<polygon fill="black" stroke="black" points="482.57,-363.96 479.07,-353.96 475.57,-363.96 482.57,-363.96"/>
<text xml:space="preserve" text-anchor="middle" x="486" y="-422.9" font-family="monospace" font-size="8.00">180°</text>
</g>
<!-- Sprint&#45;&gt;Jump_Windup -->
<g id="edge22" class="edge">
<title>Sprint&#45;&gt;Jump_Windup</title>
<path fill="none" stroke="black" d="M568.22,-456C600.37,-456 637.1,-456 637.1,-456 637.1,-456 637.1,-363.63 637.1,-363.63"/>
<polygon fill="black" stroke="black" points="640.6,-363.63 637.1,-353.63 633.6,-363.63 640.6,-363.63"/>
<text xml:space="preserve" text-anchor="middle" x="538" y="-422.9" font-family="monospace" font-size="8.00">jump</text>
</g>
<!-- Sprint&#45;&gt;Fall -->
<g id="edge28" class="edge">
<title>Sprint&#45;&gt;Fall</title>
<path fill="none" stroke="black" d="M528.3,-448.19C528.3,-381.4 528.3,-110 528.3,-110 528.3,-110 619.53,-110 619.53,-110"/>
<polygon fill="black" stroke="black" points="619.53,-113.5 629.53,-110 619.53,-106.5 619.53,-113.5"/>
<text xml:space="preserve" text-anchor="middle" x="796.5" y="-259.2" font-family="monospace" font-size="8.00">!floor</text>
</g>
<!-- Sprint&#45;&gt;Vault -->
<g id="edge40" class="edge">
<title>Sprint&#45;&gt;Vault</title>
<path fill="none" stroke="black" d="M567.92,-463C684.02,-463 975.4,-463 975.4,-463 975.4,-463 975.4,-363.99 975.4,-363.99"/>
<polygon fill="black" stroke="black" points="978.9,-363.99 975.4,-353.99 971.9,-363.99 978.9,-363.99"/>
<text xml:space="preserve" text-anchor="middle" x="957.25" y="-422.9" font-family="monospace" font-size="8.00">waist hit</text>
</g>
<!-- Stop_Sprint&#45;&gt;Idle -->
<g id="edge14" class="edge">
<title>Stop_Sprint&#45;&gt;Idle</title>
<path fill="none" stroke="black" d="M152.2,-477.76C152.2,-524.43 152.2,-665 152.2,-665 152.2,-665 121.73,-665 121.73,-665"/>
<polygon fill="black" stroke="black" points="121.73,-661.5 111.73,-665 121.73,-668.5 121.73,-661.5"/>
<text xml:space="preserve" text-anchor="middle" x="125" y="-538.1" font-family="monospace" font-size="8.00">anim end</text>
</g>
<!-- Pivot_Run&#45;&gt;Run -->
<g id="edge16" class="edge">
<title>Pivot_Run&#45;&gt;Run</title>
<path fill="none" stroke="black" d="M426.47,-477.79C426.47,-497.56 426.47,-530 426.47,-530 426.47,-530 469.29,-530 469.29,-530"/>
<polygon fill="black" stroke="black" points="469.29,-533.5 479.29,-530 469.29,-526.5 469.29,-533.5"/>
<text xml:space="preserve" text-anchor="middle" x="431" y="-499.7" font-family="monospace" font-size="8.00">anim end</text>
</g>
<!-- Pivot_Sprint&#45;&gt;Sprint -->
<g id="edge18" class="edge">
<title>Pivot_Sprint&#45;&gt;Sprint</title>
<path fill="none" stroke="black" d="M483.93,-352.47C483.93,-352.47 483.93,-436.54 483.93,-436.54"/>
<polygon fill="black" stroke="black" points="480.43,-436.54 483.93,-446.54 487.43,-436.54 480.43,-436.54"/>
<text xml:space="preserve" text-anchor="middle" x="425" y="-422.9" font-family="monospace" font-size="8.00">anim end</text>
</g>
<!-- Land -->
<g id="node12" class="node">
<title>Land</title>
<path fill="none" stroke="black" d="M331.2,-909.8C331.2,-909.8 256.8,-909.8 256.8,-909.8 252,-909.8 247.2,-905 247.2,-900.2 247.2,-900.2 247.2,-890.6 247.2,-890.6 247.2,-885.8 252,-881 256.8,-881 256.8,-881 331.2,-881 331.2,-881 336,-881 340.8,-885.8 340.8,-890.6 340.8,-890.6 340.8,-900.2 340.8,-900.2 340.8,-905 336,-909.8 331.2,-909.8"/>
<text xml:space="preserve" text-anchor="middle" x="294" y="-893.22" font-family="monospace" font-size="9.00">Land</text>
</g>
<!-- Land_Soft -->
<g id="node13" class="node">
<title>Land_Soft</title>
<path fill="none" stroke="black" d="M206.2,-44.8C206.2,-44.8 131.8,-44.8 131.8,-44.8 127,-44.8 122.2,-40 122.2,-35.2 122.2,-35.2 122.2,-25.6 122.2,-25.6 122.2,-20.8 127,-16 131.8,-16 131.8,-16 206.2,-16 206.2,-16 211,-16 215.8,-20.8 215.8,-25.6 215.8,-25.6 215.8,-35.2 215.8,-35.2 215.8,-40 211,-44.8 206.2,-44.8"/>
<text xml:space="preserve" text-anchor="middle" x="169" y="-28.22" font-family="monospace" font-size="9.00">Land_Soft</text>
</g>
<!-- Land_Soft&#45;&gt;Idle -->
<g id="edge32" class="edge">
<title>Land_Soft&#45;&gt;Idle</title>
<path fill="none" stroke="black" d="M126.2,-45.29C126.2,-140.33 126.2,-658 126.2,-658 126.2,-658 121.77,-658 121.77,-658"/>
<polygon fill="black" stroke="black" points="121.77,-654.5 111.77,-658 121.77,-661.5 121.77,-654.5"/>
<text xml:space="preserve" text-anchor="middle" x="60.75" y="-297.6" font-family="monospace" font-size="8.00">input=0</text>
</g>
<!-- Land_Soft&#45;&gt;Walk -->
<g id="edge33" class="edge">
<title>Land_Soft&#45;&gt;Walk</title>
<path fill="none" stroke="black" d="M130.2,-45.1C130.2,-134.57 130.2,-602 130.2,-602 130.2,-602 358.5,-602 358.5,-602 358.5,-602 358.5,-638.87 358.5,-638.87"/>
<polygon fill="black" stroke="black" points="355,-638.87 358.5,-648.87 362,-638.87 355,-638.87"/>
<text xml:space="preserve" text-anchor="middle" x="228.75" y="-297.6" font-family="monospace" font-size="8.00">input&gt;0</text>
</g>
<!-- Land_Heavy -->
<g id="node14" class="node">
<title>Land_Heavy</title>
<path fill="none" stroke="black" d="M329.2,-44.8C329.2,-44.8 254.8,-44.8 254.8,-44.8 250,-44.8 245.2,-40 245.2,-35.2 245.2,-35.2 245.2,-25.6 245.2,-25.6 245.2,-20.8 250,-16 254.8,-16 254.8,-16 329.2,-16 329.2,-16 334,-16 338.8,-20.8 338.8,-25.6 338.8,-25.6 338.8,-35.2 338.8,-35.2 338.8,-40 334,-44.8 329.2,-44.8"/>
<text xml:space="preserve" text-anchor="middle" x="292" y="-28.22" font-family="monospace" font-size="9.00">Land_Heavy</text>
</g>
<!-- Land_Heavy&#45;&gt;Idle -->
<g id="edge34" class="edge">
<title>Land_Heavy&#45;&gt;Idle</title>
<path fill="none" stroke="black" d="M252.07,-44.98C252.07,-52.86 252.07,-61 252.07,-61 252.07,-61 27.9,-61 27.9,-61 27.9,-61 27.9,-638.86 27.9,-638.86"/>
<polygon fill="black" stroke="black" points="24.4,-638.86 27.9,-648.86 31.4,-638.86 24.4,-638.86"/>
<text xml:space="preserve" text-anchor="middle" x="142.75" y="-297.6" font-family="monospace" font-size="8.00">input=0</text>
</g>
<!-- Land_Heavy&#45;&gt;Walk -->
<g id="edge35" class="edge">
<title>Land_Heavy&#45;&gt;Walk</title>
<path fill="none" stroke="black" d="M280.5,-45.04C280.5,-139.57 280.5,-660 280.5,-660 280.5,-660 316.24,-660 316.24,-660"/>
<polygon fill="black" stroke="black" points="316.24,-663.5 326.24,-660 316.24,-656.5 316.24,-663.5"/>
<text xml:space="preserve" text-anchor="middle" x="304.75" y="-297.6" font-family="monospace" font-size="8.00">input&gt;0</text>
</g>
<!-- Ascend -->
<g id="node16" class="node">
<title>Ascend</title>
<path fill="none" stroke="black" d="M684.2,-275.2C684.2,-275.2 609.8,-275.2 609.8,-275.2 605,-275.2 600.2,-270.4 600.2,-265.6 600.2,-265.6 600.2,-256 600.2,-256 600.2,-251.2 605,-246.4 609.8,-246.4 609.8,-246.4 684.2,-246.4 684.2,-246.4 689,-246.4 693.8,-251.2 693.8,-256 693.8,-256 693.8,-265.6 693.8,-265.6 693.8,-270.4 689,-275.2 684.2,-275.2"/>
<text xml:space="preserve" text-anchor="middle" x="647" y="-258.62" font-family="monospace" font-size="9.00">Ascend</text>
</g>
<!-- Jump_Windup&#45;&gt;Ascend -->
<g id="edge23" class="edge">
<title>Jump_Windup&#45;&gt;Ascend</title>
<path fill="none" stroke="black" d="M656,-322.79C656,-322.79 656,-287.08 656,-287.08"/>
<polygon fill="black" stroke="black" points="659.5,-287.08 656,-277.08 652.5,-287.08 659.5,-287.08"/>
<text xml:space="preserve" text-anchor="middle" x="674" y="-297.6" font-family="monospace" font-size="8.00">anim end</text>
</g>
<!-- Apex -->
<g id="node17" class="node">
<title>Apex</title>
<path fill="none" stroke="black" d="M684.2,-198.4C684.2,-198.4 609.8,-198.4 609.8,-198.4 605,-198.4 600.2,-193.6 600.2,-188.8 600.2,-188.8 600.2,-179.2 600.2,-179.2 600.2,-174.4 605,-169.6 609.8,-169.6 609.8,-169.6 684.2,-169.6 684.2,-169.6 689,-169.6 693.8,-174.4 693.8,-179.2 693.8,-179.2 693.8,-188.8 693.8,-188.8 693.8,-193.6 689,-198.4 684.2,-198.4"/>
<text xml:space="preserve" text-anchor="middle" x="647" y="-181.82" font-family="monospace" font-size="9.00">Apex</text>
</g>
<!-- Ascend&#45;&gt;Apex -->
<g id="edge24" class="edge">
<title>Ascend&#45;&gt;Apex</title>
<path fill="none" stroke="black" d="M647,-245.99C647,-245.99 647,-210.28 647,-210.28"/>
<polygon fill="black" stroke="black" points="650.5,-210.28 647,-200.28 643.5,-210.28 650.5,-210.28"/>
<text xml:space="preserve" text-anchor="middle" x="647.75" y="-220.8" font-family="monospace" font-size="8.00">vel.y≈0</text>
</g>
<!-- Apex&#45;&gt;Fall -->
<g id="edge25" class="edge">
<title>Apex&#45;&gt;Fall</title>
<path fill="none" stroke="black" d="M662.5,-169.19C662.5,-169.19 662.5,-133.48 662.5,-133.48"/>
<polygon fill="black" stroke="black" points="666,-133.48 662.5,-123.48 659,-133.48 666,-133.48"/>
<text xml:space="preserve" text-anchor="middle" x="677.75" y="-144" font-family="monospace" font-size="8.00">vel.y&lt;0</text>
</g>
<!-- Fall&#45;&gt;Land_Soft -->
<g id="edge30" class="edge">
<title>Fall&#45;&gt;Land_Soft</title>
<path fill="none" stroke="black" d="M631.13,-104C506.26,-104 175,-104 175,-104 175,-104 175,-56.81 175,-56.81"/>
<polygon fill="black" stroke="black" points="178.5,-56.81 175,-46.81 171.5,-56.81 178.5,-56.81"/>
<text xml:space="preserve" text-anchor="middle" x="522.75" y="-67.2" font-family="monospace" font-size="8.00">low</text>
</g>
<!-- Fall&#45;&gt;Land_Heavy -->
<g id="edge31" class="edge">
<title>Fall&#45;&gt;Land_Heavy</title>
<path fill="none" stroke="black" d="M630.94,-99C532.78,-99 315.2,-99 315.2,-99 315.2,-99 315.2,-56.8 315.2,-56.8"/>
<polygon fill="black" stroke="black" points="318.7,-56.8 315.2,-46.8 311.7,-56.8 318.7,-56.8"/>
<text xml:space="preserve" text-anchor="middle" x="604" y="-67.2" font-family="monospace" font-size="8.00">high</text>
</g>
<!-- Fall&#45;&gt;Jump_Windup -->
<g id="edge29" class="edge">
<title>Fall&#45;&gt;Jump_Windup</title>
<path fill="none" stroke="black" d="M702.8,-121.96C702.8,-121.96 702.8,-311.45 702.8,-311.45"/>
<polygon fill="black" stroke="black" points="699.3,-311.45 702.8,-321.45 706.3,-311.45 699.3,-311.45"/>
<text xml:space="preserve" text-anchor="middle" x="711.5" y="-220.8" font-family="monospace" font-size="8.00">coyote</text>
</g>
<!-- Ledge_Grab -->
<g id="node19" class="node">
<title>Ledge_Grab</title>
<path fill="none" stroke="black" d="M1028.2,-44.8C1028.2,-44.8 953.8,-44.8 953.8,-44.8 949,-44.8 944.2,-40 944.2,-35.2 944.2,-35.2 944.2,-25.6 944.2,-25.6 944.2,-20.8 949,-16 953.8,-16 953.8,-16 1028.2,-16 1028.2,-16 1033,-16 1037.8,-20.8 1037.8,-25.6 1037.8,-25.6 1037.8,-35.2 1037.8,-35.2 1037.8,-40 1033,-44.8 1028.2,-44.8"/>
<text xml:space="preserve" text-anchor="middle" x="991" y="-28.22" font-family="monospace" font-size="9.00">Ledge_Grab</text>
</g>
<!-- Fall&#45;&gt;Ledge_Grab -->
<g id="edge36" class="edge">
<title>Fall&#45;&gt;Ledge_Grab</title>
<path fill="none" stroke="black" d="M725.12,-107C808.98,-107 975.4,-107 975.4,-107 975.4,-107 975.4,-56.68 975.4,-56.68"/>
<polygon fill="black" stroke="black" points="978.9,-56.68 975.4,-46.68 971.9,-56.68 978.9,-56.68"/>
<text xml:space="preserve" text-anchor="middle" x="761.25" y="-67.2" font-family="monospace" font-size="8.00">chest hit</text>
</g>
<!-- Ledge_Grab&#45;&gt;Idle -->
<g id="edge37" class="edge">
<title>Ledge_Grab&#45;&gt;Idle</title>
<path fill="none" stroke="black" d="M1006.6,-45.14C1006.6,-58.8 1006.6,-77 1006.6,-77 1006.6,-77 39.6,-77 39.6,-77 39.6,-77 39.6,-638.66 39.6,-638.66"/>
<polygon fill="black" stroke="black" points="36.1,-638.66 39.6,-648.66 43.1,-638.66 36.1,-638.66"/>
<text xml:space="preserve" text-anchor="middle" x="1198.75" y="-297.6" font-family="monospace" font-size="8.00">pull up</text>
</g>
<!-- Ledge_Grab&#45;&gt;Fall -->
<g id="edge38" class="edge">
<title>Ledge_Grab&#45;&gt;Fall</title>
<path fill="none" stroke="black" d="M943.8,-30C856.36,-30 678,-30 678,-30 678,-30 678,-80.8 678,-80.8"/>
<polygon fill="black" stroke="black" points="674.5,-80.8 678,-90.8 681.5,-80.8 674.5,-80.8"/>
<text xml:space="preserve" text-anchor="middle" x="908.5" y="-67.2" font-family="monospace" font-size="8.00">let go</text>
</g>
<!-- Vault&#45;&gt;Run -->
<g id="edge41" class="edge">
<title>Vault&#45;&gt;Run</title>
<path fill="none" stroke="black" d="M943.81,-333C865.76,-333 718.3,-333 718.3,-333 718.3,-333 718.3,-535 718.3,-535 718.3,-535 586.55,-535 586.55,-535"/>
<polygon fill="black" stroke="black" points="586.55,-531.5 576.55,-535 586.55,-538.5 586.55,-531.5"/>
<text xml:space="preserve" text-anchor="middle" x="1121" y="-461.3" font-family="monospace" font-size="8.00">anim end</text>
</g>
<!-- Vault&#45;&gt;Sprint -->
<g id="edge42" class="edge">
<title>Vault&#45;&gt;Sprint</title>
<path fill="none" stroke="black" d="M1006.6,-352.27C1006.6,-386.75 1006.6,-470 1006.6,-470 1006.6,-470 579.52,-470 579.52,-470"/>
<polygon fill="black" stroke="black" points="579.52,-466.5 569.52,-470 579.52,-473.5 579.52,-466.5"/>
<text xml:space="preserve" text-anchor="middle" x="634" y="-422.9" font-family="monospace" font-size="8.00">anim end</text>
</g>
<!-- Interact&#45;&gt;Idle -->
<g id="edge44" class="edge">
<title>Interact&#45;&gt;Idle</title>
<path fill="none" stroke="black" d="M975.4,-554.43C975.4,-577.11 975.4,-618 975.4,-618 975.4,-618 86.4,-618 86.4,-618 86.4,-618 86.4,-638.62 86.4,-638.62"/>
<polygon fill="black" stroke="black" points="82.9,-638.62 86.4,-648.62 89.9,-638.62 82.9,-638.62"/>
<text xml:space="preserve" text-anchor="middle" x="737" y="-625" font-family="monospace" font-size="8.00">anim end</text>
</g>
<!-- Stagger -->
<g id="node22" class="node">
<title>Stagger</title>
<path fill="none" stroke="black" d="M685.2,-909.8C685.2,-909.8 610.8,-909.8 610.8,-909.8 606,-909.8 601.2,-905 601.2,-900.2 601.2,-900.2 601.2,-890.6 601.2,-890.6 601.2,-885.8 606,-881 610.8,-881 610.8,-881 685.2,-881 685.2,-881 690,-881 694.8,-885.8 694.8,-890.6 694.8,-890.6 694.8,-900.2 694.8,-900.2 694.8,-905 690,-909.8 685.2,-909.8"/>
<text xml:space="preserve" text-anchor="middle" x="648" y="-893.22" font-family="monospace" font-size="9.00">Stagger</text>
</g>
<!-- Stagger&#45;&gt;Idle -->
<g id="edge46" class="edge">
<title>Stagger&#45;&gt;Idle</title>
<path fill="none" stroke="grey" d="M632.4,-880.66C632.4,-869.83 632.4,-857 632.4,-857 632.4,-857 34.92,-857 34.92,-857 34.92,-857 34.92,-691.26 34.92,-691.26"/>
<polygon fill="grey" stroke="grey" points="38.42,-691.26 34.92,-681.26 31.42,-691.26 38.42,-691.26"/>
<text xml:space="preserve" text-anchor="middle" x="827.5" y="-778.6" font-family="monospace" font-size="8.00">HP&gt;25%</text>
</g>
<!-- Wounded_Idle -->
<g id="node23" class="node">
<title>Wounded_Idle</title>
<path fill="none" stroke="black" d="M685.2,-833C685.2,-833 610.8,-833 610.8,-833 606,-833 601.2,-828.2 601.2,-823.4 601.2,-823.4 601.2,-813.8 601.2,-813.8 601.2,-809 606,-804.2 610.8,-804.2 610.8,-804.2 685.2,-804.2 685.2,-804.2 690,-804.2 694.8,-809 694.8,-813.8 694.8,-813.8 694.8,-823.4 694.8,-823.4 694.8,-828.2 690,-833 685.2,-833"/>
<text xml:space="preserve" text-anchor="middle" x="648" y="-816.42" font-family="monospace" font-size="9.00">Wounded_Idle</text>
</g>
<!-- Stagger&#45;&gt;Wounded_Idle -->
<g id="edge45" class="edge">
<title>Stagger&#45;&gt;Wounded_Idle</title>
<path fill="none" stroke="red" stroke-dasharray="5,2" d="M663.6,-880.59C663.6,-880.59 663.6,-844.88 663.6,-844.88"/>
<polygon fill="red" stroke="red" points="667.1,-844.88 663.6,-834.88 660.1,-844.88 667.1,-844.88"/>
<text xml:space="preserve" text-anchor="middle" x="661.5" y="-855.4" font-family="monospace" font-size="8.00">HP≤25%</text>
</g>
<!-- Wounded_Idle&#45;&gt;Idle -->
<g id="edge48" class="edge">
<title>Wounded_Idle&#45;&gt;Idle</title>
<path fill="none" stroke="grey" d="M600.86,-819C460.29,-819 53.64,-819 53.64,-819 53.64,-819 53.64,-691.28 53.64,-691.28"/>
<polygon fill="grey" stroke="grey" points="57.14,-691.28 53.64,-681.28 50.14,-691.28 57.14,-691.28"/>
<text xml:space="preserve" text-anchor="middle" x="761" y="-740.2" font-family="monospace" font-size="8.00">heal</text>
</g>
<!-- Wounded_Walk -->
<g id="node24" class="node">
<title>Wounded_Walk</title>
<path fill="none" stroke="black" d="M684.2,-756.2C684.2,-756.2 609.8,-756.2 609.8,-756.2 605,-756.2 600.2,-751.4 600.2,-746.6 600.2,-746.6 600.2,-737 600.2,-737 600.2,-732.2 605,-727.4 609.8,-727.4 609.8,-727.4 684.2,-727.4 684.2,-727.4 689,-727.4 693.8,-732.2 693.8,-737 693.8,-737 693.8,-746.6 693.8,-746.6 693.8,-751.4 689,-756.2 684.2,-756.2"/>
<text xml:space="preserve" text-anchor="middle" x="647" y="-739.62" font-family="monospace" font-size="9.00">Wounded_Walk</text>
</g>
<!-- Wounded_Idle&#45;&gt;Wounded_Walk -->
<g id="edge47" class="edge">
<title>Wounded_Idle&#45;&gt;Wounded_Walk</title>
<path fill="none" stroke="red" d="M647.5,-792.28C647.5,-792.28 647.5,-768.08 647.5,-768.08"/>
<polygon fill="red" stroke="red" points="644,-792.28 647.5,-802.28 651,-792.28 644,-792.28"/>
<polygon fill="red" stroke="red" points="651,-768.08 647.5,-758.08 644,-768.08 651,-768.08"/>
<text xml:space="preserve" text-anchor="middle" x="668" y="-778.6" font-family="monospace" font-size="8.00">input toggle</text>
</g>
<!-- Wounded_Walk&#45;&gt;Idle -->
<g id="edge49" class="edge">
<title>Wounded_Walk&#45;&gt;Idle</title>
<path fill="none" stroke="grey" d="M599.97,-742C462.73,-742 72.36,-742 72.36,-742 72.36,-742 72.36,-691.36 72.36,-691.36"/>
<polygon fill="grey" stroke="grey" points="75.86,-691.36 72.36,-681.36 68.86,-691.36 75.86,-691.36"/>
<text xml:space="preserve" text-anchor="middle" x="265" y="-701.8" font-family="monospace" font-size="8.00">heal</text>
</g>
</g>
</svg>
