<?xml version="1.0" encoding="UTF-8" standalone="no"?>
<!DOCTYPE svg PUBLIC "-//W3C//DTD SVG 1.1//EN"
 "http://www.w3.org/Graphics/SVG/1.1/DTD/svg11.dtd">
<!-- Generated by graphviz version 14.1.5 (0)
 -->
<!-- Title: phase4 Pages: 1 -->
<svg width="697pt" height="325pt"
 viewBox="0.00 0.00 697.00 325.00" xmlns="http://www.w3.org/2000/svg" xmlns:xlink="http://www.w3.org/1999/xlink">
<g id="graph0" class="graph" transform="scale(1 1) rotate(0) translate(4 321.25)">
<title>phase4</title>
<polygon fill="white" stroke="none" points="-4,4 -4,-321.25 692.75,-321.25 692.75,4 -4,4"/>
<g id="clust1" class="cluster">
<title>cluster_ground</title>
<polygon fill="none" stroke="gray" stroke-dasharray="5,2" points="8,-8 8,-85.25 535,-85.25 535,-8 8,-8"/>
<text xml:space="preserve" text-anchor="middle" x="271.5" y="-67.95" font-family="Times,serif" font-size="14.00">Ground</text>
</g>
<g id="clust3" class="cluster">
<title>cluster_air</title>
<polygon fill="none" stroke="gray" stroke-dasharray="5,2" points="555,-232 555,-309.25 671,-309.25 671,-232 555,-232"/>
<text xml:space="preserve" text-anchor="middle" x="613" y="-291.95" font-family="Times,serif" font-size="14.00">Air</text>
</g>
<g id="clust4" class="cluster">
<title>cluster_action</title>
<polygon fill="none" stroke="gray" stroke-dasharray="5,2" points="254,-120 254,-197.25 644,-197.25 644,-120 254,-120"/>
<text xml:space="preserve" text-anchor="middle" x="449" y="-179.95" font-family="Times,serif" font-size="14.00">Action</text>
</g>
<!-- Idle -->
<g id="node1" class="node">
<title>Idle</title>
<path fill="none" stroke="black" d="M515.4,-52C515.4,-52 438.6,-52 438.6,-52 432.6,-52 426.6,-46 426.6,-40 426.6,-40 426.6,-28 426.6,-28 426.6,-22 432.6,-16 438.6,-16 438.6,-16 515.4,-16 515.4,-16 521.4,-16 527.4,-22 527.4,-28 527.4,-28 527.4,-40 527.4,-40 527.4,-46 521.4,-52 515.4,-52"/>
<text xml:space="preserve" text-anchor="middle" x="477" y="-30.45" font-family="monospace" font-size="14.00">Idle</text>
</g>
<!-- Interact -->
<g id="node8" class="node">
<title>Interact</title>
<path fill="none" stroke="black" d="M487.4,-164C487.4,-164 410.6,-164 410.6,-164 404.6,-164 398.6,-158 398.6,-152 398.6,-152 398.6,-140 398.6,-140 398.6,-134 404.6,-128 410.6,-128 410.6,-128 487.4,-128 487.4,-128 493.4,-128 499.4,-134 499.4,-140 499.4,-140 499.4,-152 499.4,-152 499.4,-158 493.4,-164 487.4,-164"/>
<text xml:space="preserve" text-anchor="middle" x="449" y="-142.45" font-family="monospace" font-size="14.00">Interact</text>
</g>
<!-- Idle&#45;&gt;Interact -->
<g id="edge8" class="edge">
<title>Idle&#45;&gt;Interact</title>
<path fill="none" stroke="black" d="M450.87,-52.49C450.87,-52.49 450.87,-116.34 450.87,-116.34"/>
<polygon fill="black" stroke="black" points="447.37,-116.34 450.87,-126.34 454.37,-116.34 447.37,-116.34"/>
<text xml:space="preserve" text-anchor="middle" x="571.38" y="-97.45" font-family="monospace" font-size="9.00">context trigger</text>
</g>
<!-- Walk -->
<g id="node2" class="node">
<title>Walk</title>
<path fill="none" stroke="black" d="M241.4,-52C241.4,-52 164.6,-52 164.6,-52 158.6,-52 152.6,-46 152.6,-40 152.6,-40 152.6,-28 152.6,-28 152.6,-22 158.6,-16 164.6,-16 164.6,-16 241.4,-16 241.4,-16 247.4,-16 253.4,-22 253.4,-28 253.4,-28 253.4,-40 253.4,-40 253.4,-46 247.4,-52 241.4,-52"/>
<text xml:space="preserve" text-anchor="middle" x="203" y="-30.45" font-family="monospace" font-size="14.00">Walk</text>
</g>
<!-- Run -->
<g id="node3" class="node">
<title>Run</title>
<path fill="none" stroke="black" d="M104.4,-52C104.4,-52 27.6,-52 27.6,-52 21.6,-52 15.6,-46 15.6,-40 15.6,-40 15.6,-28 15.6,-28 15.6,-22 21.6,-16 27.6,-16 27.6,-16 104.4,-16 104.4,-16 110.4,-16 116.4,-22 116.4,-28 116.4,-28 116.4,-40 116.4,-40 116.4,-46 110.4,-52 104.4,-52"/>
<text xml:space="preserve" text-anchor="middle" x="66" y="-30.45" font-family="monospace" font-size="14.00">Run</text>
</g>
<!-- Vault -->
<g id="node7" class="node">
<title>Vault</title>
<path fill="none" stroke="black" d="M350.4,-164C350.4,-164 273.6,-164 273.6,-164 267.6,-164 261.6,-158 261.6,-152 261.6,-152 261.6,-140 261.6,-140 261.6,-134 267.6,-128 273.6,-128 273.6,-128 350.4,-128 350.4,-128 356.4,-128 362.4,-134 362.4,-140 362.4,-140 362.4,-152 362.4,-152 362.4,-158 356.4,-164 350.4,-164"/>
<text xml:space="preserve" text-anchor="middle" x="312" y="-142.45" font-family="monospace" font-size="14.00">Vault</text>
</g>
<!-- Run&#45;&gt;Vault -->
<g id="edge4" class="edge">
<title>Run&#45;&gt;Vault</title>
<path fill="none" stroke="black" d="M49.2,-52.44C49.2,-85.62 49.2,-152 49.2,-152 49.2,-152 249.82,-152 249.82,-152"/>
<polygon fill="black" stroke="black" points="249.82,-155.5 259.82,-152 249.82,-148.5 249.82,-155.5"/>
<text xml:space="preserve" text-anchor="middle" x="182.12" y="-97.45" font-family="monospace" font-size="9.00">waist raycast</text>
</g>
<!-- Sprint -->
<g id="node4" class="node">
<title>Sprint</title>
<path fill="none" stroke="black" d="M378.4,-52C378.4,-52 301.6,-52 301.6,-52 295.6,-52 289.6,-46 289.6,-40 289.6,-40 289.6,-28 289.6,-28 289.6,-22 295.6,-16 301.6,-16 301.6,-16 378.4,-16 378.4,-16 384.4,-16 390.4,-22 390.4,-28 390.4,-28 390.4,-40 390.4,-40 390.4,-46 384.4,-52 378.4,-52"/>
<text xml:space="preserve" text-anchor="middle" x="340" y="-30.45" font-family="monospace" font-size="14.00">Sprint</text>
</g>
<!-- Sprint&#45;&gt;Vault -->
<g id="edge5" class="edge">
<title>Sprint&#45;&gt;Vault</title>
<path fill="none" stroke="black" d="M313.87,-52.49C313.87,-52.49 313.87,-116.34 313.87,-116.34"/>
<polygon fill="black" stroke="black" points="310.37,-116.34 313.87,-126.34 317.37,-116.34 310.37,-116.34"/>
<text xml:space="preserve" text-anchor="middle" x="374.12" y="-97.45" font-family="monospace" font-size="9.00">waist raycast</text>
</g>
<!-- Fall -->
<g id="node5" class="node">
<title>Fall</title>
<path fill="none" stroke="black" d="M651.4,-276C651.4,-276 574.6,-276 574.6,-276 568.6,-276 562.6,-270 562.6,-264 562.6,-264 562.6,-252 562.6,-252 562.6,-246 568.6,-240 574.6,-240 574.6,-240 651.4,-240 651.4,-240 657.4,-240 663.4,-246 663.4,-252 663.4,-252 663.4,-264 663.4,-264 663.4,-270 657.4,-276 651.4,-276"/>
<text xml:space="preserve" text-anchor="middle" x="613" y="-254.45" font-family="monospace" font-size="14.00">Fall</text>
</g>
<!-- Ledge_Grab -->
<g id="node6" class="node">
<title>Ledge_Grab</title>
<path fill="none" stroke="black" d="M624.4,-164C624.4,-164 547.6,-164 547.6,-164 541.6,-164 535.6,-158 535.6,-152 535.6,-152 535.6,-140 535.6,-140 535.6,-134 541.6,-128 547.6,-128 547.6,-128 624.4,-128 624.4,-128 630.4,-128 636.4,-134 636.4,-140 636.4,-140 636.4,-152 636.4,-152 636.4,-158 630.4,-164 624.4,-164"/>
<text xml:space="preserve" text-anchor="middle" x="586" y="-142.45" font-family="monospace" font-size="14.00">Ledge_Grab</text>
</g>
<!-- Fall&#45;&gt;Ledge_Grab -->
<g id="edge1" class="edge">
<title>Fall&#45;&gt;Ledge_Grab</title>
<path fill="none" stroke="black" d="M587.2,-239.51C587.2,-239.51 587.2,-175.66 587.2,-175.66"/>
<polygon fill="black" stroke="black" points="590.7,-175.66 587.2,-165.66 583.7,-175.66 590.7,-175.66"/>
<text xml:space="preserve" text-anchor="middle" x="565.12" y="-209.45" font-family="monospace" font-size="9.00">chest raycast</text>
</g>
<!-- Ledge_Grab&#45;&gt;Idle -->
<g id="edge2" class="edge">
<title>Ledge_Grab&#45;&gt;Idle</title>
<path fill="none" stroke="black" d="M535.18,-146C522.98,-146 513.4,-146 513.4,-146 513.4,-146 513.4,-64.01 513.4,-64.01"/>
<polygon fill="black" stroke="black" points="516.9,-64.01 513.4,-54.01 509.9,-64.01 516.9,-64.01"/>
<text xml:space="preserve" text-anchor="middle" x="670.38" y="-97.45" font-family="monospace" font-size="9.00">pull up</text>
</g>
<!-- Ledge_Grab&#45;&gt;Fall -->
<g id="edge3" class="edge">
<title>Ledge_Grab&#45;&gt;Fall</title>
<path fill="none" stroke="black" d="M611.8,-164.49C611.8,-164.49 611.8,-228.34 611.8,-228.34"/>
<polygon fill="black" stroke="black" points="608.3,-228.34 611.8,-238.34 615.3,-228.34 608.3,-228.34"/>
<text xml:space="preserve" text-anchor="middle" x="655.75" y="-209.45" font-family="monospace" font-size="9.00">let go</text>
</g>
<!-- Vault&#45;&gt;Run -->
<g id="edge6" class="edge">
<title>Vault&#45;&gt;Run</title>
<path fill="none" stroke="black" d="M261.13,-140C193.61,-140 82.8,-140 82.8,-140 82.8,-140 82.8,-63.98 82.8,-63.98"/>
<polygon fill="black" stroke="black" points="86.3,-63.98 82.8,-53.98 79.3,-63.98 86.3,-63.98"/>
<text xml:space="preserve" text-anchor="middle" x="86" y="-97.45" font-family="monospace" font-size="9.00">anim end</text>
</g>
<!-- Vault&#45;&gt;Sprint -->
<g id="edge7" class="edge">
<title>Vault&#45;&gt;Sprint</title>
<path fill="none" stroke="black" d="M338.13,-127.51C338.13,-127.51 338.13,-63.66 338.13,-63.66"/>
<polygon fill="black" stroke="black" points="341.63,-63.66 338.13,-53.66 334.63,-63.66 341.63,-63.66"/>
<text xml:space="preserve" text-anchor="middle" x="278" y="-97.45" font-family="monospace" font-size="9.00">anim end</text>
</g>
<!-- Interact&#45;&gt;Idle -->
<g id="edge9" class="edge">
<title>Interact&#45;&gt;Idle</title>
<path fill="none" stroke="black" d="M475.13,-127.51C475.13,-127.51 475.13,-63.66 475.13,-63.66"/>
<polygon fill="black" stroke="black" points="478.63,-63.66 475.13,-53.66 471.63,-63.66 478.63,-63.66"/>
<text xml:space="preserve" text-anchor="middle" x="470" y="-97.45" font-family="monospace" font-size="9.00">anim end</text>
</g>
</g>
</svg>
