<?xml version="1.0" encoding="UTF-8" standalone="no"?>
<!DOCTYPE svg PUBLIC "-//W3C//DTD SVG 1.1//EN"
 "http://www.w3.org/Graphics/SVG/1.1/DTD/svg11.dtd">
<!-- Generated by graphviz version 14.1.5 (0)
 -->
<!-- Title: phase5 Pages: 1 -->
<svg width="362pt" height="426pt"
 viewBox="0.00 0.00 362.00 426.00" xmlns="http://www.w3.org/2000/svg" xmlns:xlink="http://www.w3.org/1999/xlink">
<g id="graph0" class="graph" transform="scale(1 1) rotate(0) translate(4 421.75)">
<title>phase5</title>
<polygon fill="white" stroke="none" points="-4,4 -4,-421.75 358,-421.75 358,4 -4,4"/>
<g id="clust1" class="cluster">
<title>cluster_hurt</title>
<polygon fill="none" stroke="red" stroke-dasharray="5,2" points="8,-84.75 8,-347.5 140,-347.5 140,-84.75 8,-84.75"/>
<text xml:space="preserve" text-anchor="middle" x="74" y="-330.2" font-family="Times,serif" font-size="14.00">Hurt (Global)</text>
</g>
<!-- Stagger -->
<g id="node1" class="node">
<title>Stagger</title>
<path fill="none" stroke="black" d="M118.4,-314.25C118.4,-314.25 41.6,-314.25 41.6,-314.25 35.6,-314.25 29.6,-308.25 29.6,-302.25 29.6,-302.25 29.6,-290.25 29.6,-290.25 29.6,-284.25 35.6,-278.25 41.6,-278.25 41.6,-278.25 118.4,-278.25 118.4,-278.25 124.4,-278.25 130.4,-284.25 130.4,-290.25 130.4,-290.25 130.4,-302.25 130.4,-302.25 130.4,-308.25 124.4,-314.25 118.4,-314.25"/>
<text xml:space="preserve" text-anchor="middle" x="80" y="-292.7" font-family="monospace" font-size="14.00">Stagger</text>
</g>
<!-- Wounded_Idle -->
<g id="node2" class="node">
<title>Wounded_Idle</title>
<path fill="none" stroke="black" d="M119.5,-221.5C119.5,-221.5 28.5,-221.5 28.5,-221.5 22.5,-221.5 16.5,-215.5 16.5,-209.5 16.5,-209.5 16.5,-197.5 16.5,-197.5 16.5,-191.5 22.5,-185.5 28.5,-185.5 28.5,-185.5 119.5,-185.5 119.5,-185.5 125.5,-185.5 131.5,-191.5 131.5,-197.5 131.5,-197.5 131.5,-209.5 131.5,-209.5 131.5,-215.5 125.5,-221.5 119.5,-221.5"/>
<text xml:space="preserve" text-anchor="middle" x="74" y="-199.95" font-family="monospace" font-size="14.00">Wounded_Idle</text>
</g>
<!-- Stagger&#45;&gt;Wounded_Idle -->
<g id="edge2" class="edge">
<title>Stagger&#45;&gt;Wounded_Idle</title>
<path fill="none" stroke="black" d="M80,-277.93C80,-277.93 80,-233.3 80,-233.3"/>
<polygon fill="black" stroke="black" points="83.5,-233.3 80,-223.3 76.5,-233.3 83.5,-233.3"/>
<text xml:space="preserve" text-anchor="middle" x="97" y="-247.7" font-family="monospace" font-size="9.00">HP ≤ 25%</text>
</g>
<!-- Idle -->
<g id="node5" class="node">
<title>Idle</title>
<path fill="none" stroke="red" d="M242.4,-36C242.4,-36 165.6,-36 165.6,-36 159.6,-36 153.6,-30 153.6,-24 153.6,-24 153.6,-12 153.6,-12 153.6,-6 159.6,0 165.6,0 165.6,0 242.4,0 242.4,0 248.4,0 254.4,-6 254.4,-12 254.4,-12 254.4,-24 254.4,-24 254.4,-30 248.4,-36 242.4,-36"/>
<text xml:space="preserve" text-anchor="middle" x="204" y="-14.45" font-family="monospace" font-size="14.00">Idle</text>
</g>
<!-- Stagger&#45;&gt;Idle -->
<g id="edge3" class="edge">
<title>Stagger&#45;&gt;Idle</title>
<path fill="none" stroke="gray" d="M130.51,-296C173.8,-296 229.2,-296 229.2,-296 229.2,-296 229.2,-47.75 229.2,-47.75"/>
<polygon fill="gray" stroke="gray" points="232.7,-47.75 229.2,-37.75 225.7,-47.75 232.7,-47.75"/>
<text xml:space="preserve" text-anchor="middle" x="333" y="-154.95" font-family="monospace" font-size="9.00">HP &gt; 25%</text>
</g>
<!-- Wounded_Walk -->
<g id="node3" class="node">
<title>Wounded_Walk</title>
<path fill="none" stroke="black" d="M119.5,-128.75C119.5,-128.75 28.5,-128.75 28.5,-128.75 22.5,-128.75 16.5,-122.75 16.5,-116.75 16.5,-116.75 16.5,-104.75 16.5,-104.75 16.5,-98.75 22.5,-92.75 28.5,-92.75 28.5,-92.75 119.5,-92.75 119.5,-92.75 125.5,-92.75 131.5,-98.75 131.5,-104.75 131.5,-104.75 131.5,-116.75 131.5,-116.75 131.5,-122.75 125.5,-128.75 119.5,-128.75"/>
<text xml:space="preserve" text-anchor="middle" x="74" y="-107.2" font-family="monospace" font-size="14.00">Wounded_Walk</text>
</g>
<!-- Wounded_Idle&#45;&gt;Wounded_Walk -->
<g id="edge4" class="edge">
<title>Wounded_Idle&#45;&gt;Wounded_Walk</title>
<path fill="none" stroke="black" d="M74,-173.66C74,-173.66 74,-140.55 74,-140.55"/>
<polygon fill="black" stroke="black" points="70.5,-173.66 74,-183.66 77.5,-173.66 70.5,-173.66"/>
<polygon fill="black" stroke="black" points="77.5,-140.55 74,-130.55 70.5,-140.55 77.5,-140.55"/>
<text xml:space="preserve" text-anchor="middle" x="92.38" y="-154.95" font-family="monospace" font-size="9.00">input / input=0</text>
</g>
<!-- Wounded_Idle&#45;&gt;Idle -->
<g id="edge5" class="edge">
<title>Wounded_Idle&#45;&gt;Idle</title>
<path fill="none" stroke="gray" d="M131.78,-204C166.5,-204 204,-204 204,-204 204,-204 204,-47.69 204,-47.69"/>
<polygon fill="gray" stroke="gray" points="207.5,-47.69 204,-37.69 200.5,-47.69 207.5,-47.69"/>
<text xml:space="preserve" text-anchor="middle" x="230.25" y="-108.58" font-family="monospace" font-size="9.00">heal event</text>
</g>
<!-- Wounded_Walk&#45;&gt;Idle -->
<g id="edge6" class="edge">
<title>Wounded_Walk&#45;&gt;Idle</title>
<path fill="none" stroke="gray" d="M131.92,-111C156.15,-111 178.8,-111 178.8,-111 178.8,-111 178.8,-47.89 178.8,-47.89"/>
<polygon fill="gray" stroke="gray" points="182.3,-47.89 178.8,-37.89 175.3,-47.89 182.3,-47.89"/>
<text xml:space="preserve" text-anchor="middle" x="127.25" y="-62.2" font-family="monospace" font-size="9.00">heal event</text>
</g>
<!-- AnyState -->
<g id="node4" class="node">
<title>AnyState</title>
<text xml:space="preserve" text-anchor="middle" x="80" y="-400.45" font-family="monospace" font-size="14.00">[Any State]</text>
</g>
<!-- AnyState&#45;&gt;Stagger -->
<g id="edge1" class="edge">
<title>AnyState&#45;&gt;Stagger</title>
<path fill="none" stroke="red" stroke-dasharray="5,2" d="M80,-390.35C80,-390.35 80,-325.97 80,-325.97"/>
<polygon fill="red" stroke="red" points="83.5,-325.97 80,-315.97 76.5,-325.97 83.5,-325.97"/>
<text xml:space="preserve" text-anchor="middle" x="111.5" y="-359.7" font-family="monospace" font-size="9.00">damage taken</text>
</g>
</g>
</svg>
