<?xml version="1.0" encoding="UTF-8" standalone="no"?>
<!DOCTYPE svg PUBLIC "-//W3C//DTD SVG 1.1//EN"
 "http://www.w3.org/Graphics/SVG/1.1/DTD/svg11.dtd">
<!-- Generated by graphviz version 14.1.5 (0)
 -->
<!-- Title: phase1 Pages: 1 -->
<svg width="550pt" height="426pt"
 viewBox="0.00 0.00 550.00 426.00" xmlns="http://www.w3.org/2000/svg" xmlns:xlink="http://www.w3.org/1999/xlink">
<g id="graph0" class="graph" transform="scale(1 1) rotate(0) translate(4 421.88)">
<title>phase1</title>
<polygon fill="white" stroke="none" points="-4,4 -4,-421.88 546,-421.88 546,4 -4,4"/>
<g id="clust1" class="cluster">
<title>cluster_ground</title>
<polygon fill="none" stroke="gray" stroke-dasharray="5,2" points="8,-241 8,-343.5 534,-343.5 534,-241 8,-241"/>
<text xml:space="preserve" text-anchor="middle" x="271" y="-326.2" font-family="Times,serif" font-size="14.00">Ground</text>
</g>
<g id="clust3" class="cluster">
<title>cluster_air</title>
<polygon fill="none" stroke="gray" stroke-dasharray="5,2" points="261,-8 261,-204.75 377,-204.75 377,-8 261,-8"/>
<text xml:space="preserve" text-anchor="middle" x="319" y="-187.45" font-family="Times,serif" font-size="14.00">Air</text>
</g>
<!-- Idle -->
<g id="node1" class="node">
<title>Idle</title>
<path fill="none" stroke="black" d="M514.4,-285C514.4,-285 437.6,-285 437.6,-285 431.6,-285 425.6,-279 425.6,-273 425.6,-273 425.6,-261 425.6,-261 425.6,-255 431.6,-249 437.6,-249 437.6,-249 514.4,-249 514.4,-249 520.4,-249 526.4,-255 526.4,-261 526.4,-261 526.4,-273 526.4,-273 526.4,-279 520.4,-285 514.4,-285"/>
<text xml:space="preserve" text-anchor="middle" x="476" y="-263.45" font-family="monospace" font-size="14.00">Idle</text>
</g>
<!-- Walk -->
<g id="node2" class="node">
<title>Walk</title>
<path fill="none" stroke="black" d="M104.4,-285C104.4,-285 27.6,-285 27.6,-285 21.6,-285 15.6,-279 15.6,-273 15.6,-273 15.6,-261 15.6,-261 15.6,-255 21.6,-249 27.6,-249 27.6,-249 104.4,-249 104.4,-249 110.4,-249 116.4,-255 116.4,-261 116.4,-261 116.4,-273 116.4,-273 116.4,-279 110.4,-285 104.4,-285"/>
<text xml:space="preserve" text-anchor="middle" x="66" y="-263.45" font-family="monospace" font-size="14.00">Walk</text>
</g>
<!-- Idle&#45;&gt;Walk -->
<g id="edge1" class="edge">
<title>Idle&#45;&gt;Walk</title>
<path fill="none" stroke="black" d="M476,-296.94C476,-296.94 476,-303 476,-303 476,-303 66,-303 66,-303 66,-303 66,-296.94 66,-296.94"/>
<polygon fill="black" stroke="black" points="479.5,-296.94 476,-286.94 472.5,-296.94 479.5,-296.94"/>
<polygon fill="black" stroke="black" points="69.5,-296.94 66,-286.94 62.5,-296.94 69.5,-296.94"/>
<text xml:space="preserve" text-anchor="middle" x="271" y="-356.25" font-family="monospace" font-size="10.00">input&gt;0 / input=0</text>
</g>
<!-- Ascend -->
<g id="node4" class="node">
<title>Ascend</title>
<path fill="none" stroke="black" d="M357.4,-146.25C357.4,-146.25 280.6,-146.25 280.6,-146.25 274.6,-146.25 268.6,-140.25 268.6,-134.25 268.6,-134.25 268.6,-122.25 268.6,-122.25 268.6,-116.25 274.6,-110.25 280.6,-110.25 280.6,-110.25 357.4,-110.25 357.4,-110.25 363.4,-110.25 369.4,-116.25 369.4,-122.25 369.4,-122.25 369.4,-134.25 369.4,-134.25 369.4,-140.25 363.4,-146.25 357.4,-146.25"/>
<text xml:space="preserve" text-anchor="middle" x="319" y="-124.7" font-family="monospace" font-size="14.00">Ascend</text>
</g>
<!-- Idle&#45;&gt;Ascend -->
<g id="edge4" class="edge">
<title>Idle&#45;&gt;Ascend</title>
<path fill="none" stroke="black" d="M425.32,-261C393.67,-261 358.9,-261 358.9,-261 358.9,-261 358.9,-158.22 358.9,-158.22"/>
<polygon fill="black" stroke="black" points="362.4,-158.22 358.9,-148.22 355.4,-158.22 362.4,-158.22"/>
<text xml:space="preserve" text-anchor="middle" x="415" y="-217.5" font-family="monospace" font-size="10.00">jump</text>
</g>
<!-- Run -->
<g id="node3" class="node">
<title>Run</title>
<path fill="none" stroke="black" d="M336.4,-285C336.4,-285 259.6,-285 259.6,-285 253.6,-285 247.6,-279 247.6,-273 247.6,-273 247.6,-261 247.6,-261 247.6,-255 253.6,-249 259.6,-249 259.6,-249 336.4,-249 336.4,-249 342.4,-249 348.4,-255 348.4,-261 348.4,-261 348.4,-273 348.4,-273 348.4,-279 342.4,-285 336.4,-285"/>
<text xml:space="preserve" text-anchor="middle" x="298" y="-263.45" font-family="monospace" font-size="14.00">Run</text>
</g>
<!-- Walk&#45;&gt;Run -->
<g id="edge2" class="edge">
<title>Walk&#45;&gt;Run</title>
<path fill="none" stroke="black" d="M128.14,-267C128.14,-267 235.97,-267 235.97,-267"/>
<polygon fill="black" stroke="black" points="128.14,-263.5 118.14,-267 128.14,-270.5 128.14,-263.5"/>
<polygon fill="black" stroke="black" points="235.97,-270.5 245.97,-267 235.97,-263.5 235.97,-270.5"/>
</g>
<!-- Walk&#45;&gt;Ascend -->
<g id="edge5" class="edge">
<title>Walk&#45;&gt;Ascend</title>
<path fill="none" stroke="black" d="M66,-248.54C66,-210.73 66,-128 66,-128 66,-128 256.59,-128 256.59,-128"/>
<polygon fill="black" stroke="black" points="256.59,-131.5 266.59,-128 256.59,-124.5 256.59,-131.5"/>
<text xml:space="preserve" text-anchor="middle" x="176" y="-217.5" font-family="monospace" font-size="10.00">jump</text>
</g>
<!-- Run&#45;&gt;Idle -->
<g id="edge3" class="edge">
<title>Run&#45;&gt;Idle</title>
<path fill="none" stroke="black" d="M348.53,-273C348.53,-273 413.83,-273 413.83,-273"/>
<polygon fill="black" stroke="black" points="413.83,-276.5 423.83,-273 413.83,-269.5 413.83,-276.5"/>
</g>
<!-- Run&#45;&gt;Ascend -->
<g id="edge6" class="edge">
<title>Run&#45;&gt;Ascend</title>
<path fill="none" stroke="black" d="M308.5,-248.58C308.5,-248.58 308.5,-157.82 308.5,-157.82"/>
<polygon fill="black" stroke="black" points="312,-157.82 308.5,-147.82 305,-157.82 312,-157.82"/>
<text xml:space="preserve" text-anchor="middle" x="324" y="-217.5" font-family="monospace" font-size="10.00">jump</text>
</g>
<!-- Fall -->
<g id="node5" class="node">
<title>Fall</title>
<path fill="none" stroke="black" d="M357.4,-52C357.4,-52 280.6,-52 280.6,-52 274.6,-52 268.6,-46 268.6,-40 268.6,-40 268.6,-28 268.6,-28 268.6,-22 274.6,-16 280.6,-16 280.6,-16 357.4,-16 357.4,-16 363.4,-16 369.4,-22 369.4,-28 369.4,-28 369.4,-40 369.4,-40 369.4,-46 363.4,-52 357.4,-52"/>
<text xml:space="preserve" text-anchor="middle" x="319" y="-30.45" font-family="monospace" font-size="14.00">Fall</text>
</g>
<!-- Ascend&#45;&gt;Fall -->
<g id="edge7" class="edge">
<title>Ascend&#45;&gt;Fall</title>
<path fill="none" stroke="black" d="M319,-110.08C319,-110.08 319,-63.95 319,-63.95"/>
<polygon fill="black" stroke="black" points="322.5,-63.95 319,-53.95 315.5,-63.95 322.5,-63.95"/>
<text xml:space="preserve" text-anchor="middle" x="340" y="-78.75" font-family="monospace" font-size="10.00">vel.y&lt;0</text>
</g>
<!-- Fall&#45;&gt;Idle -->
<g id="edge8" class="edge">
<title>Fall&#45;&gt;Idle</title>
<path fill="none" stroke="black" d="M369.54,-34C415.44,-34 476,-34 476,-34 476,-34 476,-237.2 476,-237.2"/>
<polygon fill="black" stroke="black" points="472.5,-237.2 476,-247.2 479.5,-237.2 472.5,-237.2"/>
<text xml:space="preserve" text-anchor="middle" x="481" y="-125.88" font-family="monospace" font-size="10.00">land</text>
</g>
</g>
</svg>
