<?xml version="1.0" encoding="UTF-8" standalone="no"?>
<!DOCTYPE svg PUBLIC "-//W3C//DTD SVG 1.1//EN"
 "http://www.w3.org/Graphics/SVG/1.1/DTD/svg11.dtd">
<!-- Generated by graphviz version 14.1.5 (0)
 -->
<!-- Title: phase3 Pages: 1 -->
<svg width="1017pt" height="635pt"
 viewBox="0.00 0.00 1017.00 635.00" xmlns="http://www.w3.org/2000/svg" xmlns:xlink="http://www.w3.org/1999/xlink">
<g id="graph0" class="graph" transform="scale(1 1) rotate(0) translate(4 630.75)">
<title>phase3</title>
<polygon fill="white" stroke="none" points="-4,4 -4,-630.75 1013.25,-630.75 1013.25,4 -4,4"/>
<g id="clust1" class="cluster">
<title>cluster_ground</title>
<polygon fill="none" stroke="gray" stroke-dasharray="5,2" points="187,-100.75 187,-618.75 832,-618.75 832,-100.75 187,-100.75"/>
<text xml:space="preserve" text-anchor="middle" x="509.5" y="-601.45" font-family="Times,serif" font-size="14.00">Ground</text>
</g>
<g id="clust5" class="cluster">
<title>cluster_air</title>
<polygon fill="none" stroke="gray" stroke-dasharray="5,2" points="57,-8 57,-388.75 179,-388.75 179,-8 57,-8"/>
<text xml:space="preserve" text-anchor="middle" x="118" y="-371.45" font-family="Times,serif" font-size="14.00">Air</text>
</g>
<!-- Idle -->
<g id="node1" class="node">
<title>Idle</title>
<path fill="none" stroke="black" d="M812.4,-467.5C812.4,-467.5 735.6,-467.5 735.6,-467.5 729.6,-467.5 723.6,-461.5 723.6,-455.5 723.6,-455.5 723.6,-443.5 723.6,-443.5 723.6,-437.5 729.6,-431.5 735.6,-431.5 735.6,-431.5 812.4,-431.5 812.4,-431.5 818.4,-431.5 824.4,-437.5 824.4,-443.5 824.4,-443.5 824.4,-455.5 824.4,-455.5 824.4,-461.5 818.4,-467.5 812.4,-467.5"/>
<text xml:space="preserve" text-anchor="middle" x="774" y="-445.95" font-family="monospace" font-size="14.00">Idle</text>
</g>
<!-- Start_Walk -->
<g id="node2" class="node">
<title>Start_Walk</title>
<path fill="none" stroke="black" d="M283.4,-467.5C283.4,-467.5 206.6,-467.5 206.6,-467.5 200.6,-467.5 194.6,-461.5 194.6,-455.5 194.6,-455.5 194.6,-443.5 194.6,-443.5 194.6,-437.5 200.6,-431.5 206.6,-431.5 206.6,-431.5 283.4,-431.5 283.4,-431.5 289.4,-431.5 295.4,-437.5 295.4,-443.5 295.4,-443.5 295.4,-455.5 295.4,-455.5 295.4,-461.5 289.4,-467.5 283.4,-467.5"/>
<text xml:space="preserve" text-anchor="middle" x="245" y="-445.95" font-family="monospace" font-size="14.00">Start_Walk</text>
</g>
<!-- Idle&#45;&gt;Start_Walk -->
<g id="edge1" class="edge">
<title>Idle&#45;&gt;Start_Walk</title>
<path fill="none" stroke="black" d="M774,-467.98C774,-484.13 774,-505 774,-505 774,-505 245,-505 245,-505 245,-505 245,-479.49 245,-479.49"/>
<polygon fill="black" stroke="black" points="248.5,-479.49 245,-469.49 241.5,-479.49 248.5,-479.49"/>
<text xml:space="preserve" text-anchor="middle" x="521" y="-493.7" font-family="monospace" font-size="9.00">input&gt;0</text>
</g>
<!-- Start_Run -->
<g id="node5" class="node">
<title>Start_Run</title>
<path fill="none" stroke="black" d="M562.4,-330.25C562.4,-330.25 485.6,-330.25 485.6,-330.25 479.6,-330.25 473.6,-324.25 473.6,-318.25 473.6,-318.25 473.6,-306.25 473.6,-306.25 473.6,-300.25 479.6,-294.25 485.6,-294.25 485.6,-294.25 562.4,-294.25 562.4,-294.25 568.4,-294.25 574.4,-300.25 574.4,-306.25 574.4,-306.25 574.4,-318.25 574.4,-318.25 574.4,-324.25 568.4,-330.25 562.4,-330.25"/>
<text xml:space="preserve" text-anchor="middle" x="524" y="-308.7" font-family="monospace" font-size="14.00">Start_Run</text>
</g>
<!-- Idle&#45;&gt;Start_Run -->
<g id="edge5" class="edge">
<title>Idle&#45;&gt;Start_Run</title>
<path fill="none" stroke="black" d="M723.28,-453C708.38,-453 696,-453 696,-453 696,-453 696,-312 696,-312 696,-312 586.19,-312 586.19,-312"/>
<polygon fill="black" stroke="black" points="586.19,-308.5 576.19,-312 586.19,-315.5 586.19,-308.5"/>
<text xml:space="preserve" text-anchor="middle" x="558.5" y="-400.95" font-family="monospace" font-size="9.00">sprint+input</text>
</g>
<!-- Jump_Windup -->
<g id="node14" class="node">
<title>Jump_Windup</title>
<path fill="none" stroke="black" d="M159.38,-330.25C159.38,-330.25 76.62,-330.25 76.62,-330.25 70.62,-330.25 64.62,-324.25 64.62,-318.25 64.62,-318.25 64.62,-306.25 64.62,-306.25 64.62,-300.25 70.62,-294.25 76.62,-294.25 76.62,-294.25 159.38,-294.25 159.38,-294.25 165.38,-294.25 171.38,-300.25 171.38,-306.25 171.38,-306.25 171.38,-318.25 171.38,-318.25 171.38,-324.25 165.38,-330.25 159.38,-330.25"/>
<text xml:space="preserve" text-anchor="middle" x="118" y="-308.7" font-family="monospace" font-size="14.00">Jump_Windup</text>
</g>
<!-- Idle&#45;&gt;Jump_Windup -->
<g id="edge22" class="edge">
<title>Idle&#45;&gt;Jump_Windup</title>
<path fill="none" stroke="black" d="M757.2,-431.14C757.2,-410.85 757.2,-381 757.2,-381 757.2,-381 135.79,-381 135.79,-381 135.79,-381 135.79,-342.19 135.79,-342.19"/>
<polygon fill="black" stroke="black" points="139.29,-342.19 135.79,-332.19 132.29,-342.19 139.29,-342.19"/>
<text xml:space="preserve" text-anchor="middle" x="269.5" y="-400.95" font-family="monospace" font-size="9.00">jump</text>
</g>
<!-- Walk -->
<g id="node3" class="node">
<title>Walk</title>
<path fill="none" stroke="black" d="M461.4,-467.5C461.4,-467.5 384.6,-467.5 384.6,-467.5 378.6,-467.5 372.6,-461.5 372.6,-455.5 372.6,-455.5 372.6,-443.5 372.6,-443.5 372.6,-437.5 378.6,-431.5 384.6,-431.5 384.6,-431.5 461.4,-431.5 461.4,-431.5 467.4,-431.5 473.4,-437.5 473.4,-443.5 473.4,-443.5 473.4,-455.5 473.4,-455.5 473.4,-461.5 467.4,-467.5 461.4,-467.5"/>
<text xml:space="preserve" text-anchor="middle" x="423" y="-445.95" font-family="monospace" font-size="14.00">Walk</text>
</g>
<!-- Start_Walk&#45;&gt;Walk -->
<g id="edge2" class="edge">
<title>Start_Walk&#45;&gt;Walk</title>
<path fill="none" stroke="black" d="M295.53,-450C295.53,-450 360.83,-450 360.83,-450"/>
<polygon fill="black" stroke="black" points="360.83,-453.5 370.83,-450 360.83,-446.5 360.83,-453.5"/>
</g>
<!-- Stop_Walk -->
<g id="node4" class="node">
<title>Stop_Walk</title>
<path fill="none" stroke="black" d="M634.4,-467.5C634.4,-467.5 557.6,-467.5 557.6,-467.5 551.6,-467.5 545.6,-461.5 545.6,-455.5 545.6,-455.5 545.6,-443.5 545.6,-443.5 545.6,-437.5 551.6,-431.5 557.6,-431.5 557.6,-431.5 634.4,-431.5 634.4,-431.5 640.4,-431.5 646.4,-437.5 646.4,-443.5 646.4,-443.5 646.4,-455.5 646.4,-455.5 646.4,-461.5 640.4,-467.5 634.4,-467.5"/>
<text xml:space="preserve" text-anchor="middle" x="596" y="-445.95" font-family="monospace" font-size="14.00">Stop_Walk</text>
</g>
<!-- Walk&#45;&gt;Stop_Walk -->
<g id="edge3" class="edge">
<title>Walk&#45;&gt;Stop_Walk</title>
<path fill="none" stroke="black" d="M473.5,-450C473.5,-450 533.62,-450 533.62,-450"/>
<polygon fill="black" stroke="black" points="533.62,-453.5 543.62,-450 533.62,-446.5 533.62,-453.5"/>
</g>
<!-- Run -->
<g id="node6" class="node">
<title>Run</title>
<path fill="none" stroke="black" d="M384.4,-330.25C384.4,-330.25 307.6,-330.25 307.6,-330.25 301.6,-330.25 295.6,-324.25 295.6,-318.25 295.6,-318.25 295.6,-306.25 295.6,-306.25 295.6,-300.25 301.6,-294.25 307.6,-294.25 307.6,-294.25 384.4,-294.25 384.4,-294.25 390.4,-294.25 396.4,-300.25 396.4,-306.25 396.4,-306.25 396.4,-318.25 396.4,-318.25 396.4,-324.25 390.4,-330.25 384.4,-330.25"/>
<text xml:space="preserve" text-anchor="middle" x="346" y="-308.7" font-family="monospace" font-size="14.00">Run</text>
</g>
<!-- Walk&#45;&gt;Run -->
<g id="edge7" class="edge">
<title>Walk&#45;&gt;Run</title>
<path fill="none" stroke="black" d="M386.88,-431.27C386.88,-431.27 386.88,-342.06 386.88,-342.06"/>
<polygon fill="black" stroke="black" points="390.38,-342.06 386.88,-332.06 383.38,-342.06 390.38,-342.06"/>
<text xml:space="preserve" text-anchor="middle" x="362.75" y="-400.95" font-family="monospace" font-size="9.00">sprint</text>
</g>
<!-- Walk&#45;&gt;Jump_Windup -->
<g id="edge23" class="edge">
<title>Walk&#45;&gt;Jump_Windup</title>
<path fill="none" stroke="black" d="M377.36,-431.05C377.36,-419.2 377.36,-406 377.36,-406 377.36,-406 100.21,-406 100.21,-406 100.21,-406 100.21,-341.84 100.21,-341.84"/>
<polygon fill="black" stroke="black" points="103.71,-341.84 100.21,-331.84 96.71,-341.84 103.71,-341.84"/>
<text xml:space="preserve" text-anchor="middle" x="153.5" y="-400.95" font-family="monospace" font-size="9.00">jump</text>
</g>
<!-- Fall -->
<g id="node17" class="node">
<title>Fall</title>
<path fill="none" stroke="black" d="M159.4,-52C159.4,-52 82.6,-52 82.6,-52 76.6,-52 70.6,-46 70.6,-40 70.6,-40 70.6,-28 70.6,-28 70.6,-22 76.6,-16 82.6,-16 82.6,-16 159.4,-16 159.4,-16 165.4,-16 171.4,-22 171.4,-28 171.4,-28 171.4,-40 171.4,-40 171.4,-46 165.4,-52 159.4,-52"/>
<text xml:space="preserve" text-anchor="middle" x="121" y="-30.45" font-family="monospace" font-size="14.00">Fall</text>
</g>
<!-- Walk&#45;&gt;Fall -->
<g id="edge19" class="edge">
<title>Walk&#45;&gt;Fall</title>
<path fill="none" stroke="black" d="M382.12,-431.03C382.12,-403.78 382.12,-356 382.12,-356 382.12,-356 220.6,-356 220.6,-356 220.6,-356 220.6,-40 220.6,-40 220.6,-40 183.19,-40 183.19,-40"/>
<polygon fill="black" stroke="black" points="183.19,-36.5 173.19,-40 183.19,-43.5 183.19,-36.5"/>
<text xml:space="preserve" text-anchor="middle" x="15.75" y="-217.32" font-family="monospace" font-size="9.00">!floor</text>
</g>
<!-- Stop_Walk&#45;&gt;Idle -->
<g id="edge4" class="edge">
<title>Stop_Walk&#45;&gt;Idle</title>
<path fill="none" stroke="black" d="M646.53,-439C646.53,-439 711.83,-439 711.83,-439"/>
<polygon fill="black" stroke="black" points="711.83,-442.5 721.83,-439 711.83,-435.5 711.83,-442.5"/>
</g>
<!-- Start_Run&#45;&gt;Run -->
<g id="edge6" class="edge">
<title>Start_Run&#45;&gt;Run</title>
<path fill="none" stroke="black" d="M473.47,-312C473.47,-312 408.17,-312 408.17,-312"/>
<polygon fill="black" stroke="black" points="408.17,-308.5 398.17,-312 408.17,-315.5 408.17,-308.5"/>
</g>
<!-- Run&#45;&gt;Walk -->
<g id="edge8" class="edge">
<title>Run&#45;&gt;Walk</title>
<path fill="none" stroke="black" d="M391.64,-330.48C391.64,-330.48 391.64,-419.69 391.64,-419.69"/>
<polygon fill="black" stroke="black" points="388.14,-419.69 391.64,-429.69 395.14,-419.69 388.14,-419.69"/>
<text xml:space="preserve" text-anchor="middle" x="440.38" y="-400.95" font-family="monospace" font-size="9.00">release</text>
</g>
<!-- Stop_Run -->
<g id="node7" class="node">
<title>Stop_Run</title>
<path fill="none" stroke="black" d="M812.4,-330.25C812.4,-330.25 735.6,-330.25 735.6,-330.25 729.6,-330.25 723.6,-324.25 723.6,-318.25 723.6,-318.25 723.6,-306.25 723.6,-306.25 723.6,-300.25 729.6,-294.25 735.6,-294.25 735.6,-294.25 812.4,-294.25 812.4,-294.25 818.4,-294.25 824.4,-300.25 824.4,-306.25 824.4,-306.25 824.4,-318.25 824.4,-318.25 824.4,-324.25 818.4,-330.25 812.4,-330.25"/>
<text xml:space="preserve" text-anchor="middle" x="774" y="-308.7" font-family="monospace" font-size="14.00">Stop_Run</text>
</g>
<!-- Run&#45;&gt;Stop_Run -->
<g id="edge9" class="edge">
<title>Run&#45;&gt;Stop_Run</title>
<path fill="none" stroke="black" d="M393.2,-294.06C393.2,-284.61 393.2,-275 393.2,-275 393.2,-275 774,-275 774,-275 774,-275 774,-282.55 774,-282.55"/>
<polygon fill="black" stroke="black" points="770.5,-282.55 774,-292.55 777.5,-282.55 770.5,-282.55"/>
<text xml:space="preserve" text-anchor="middle" x="619" y="-400.95" font-family="monospace" font-size="9.00">input=0</text>
</g>
<!-- Sprint -->
<g id="node8" class="node">
<title>Sprint</title>
<path fill="none" stroke="black" d="M335.4,-237.5C335.4,-237.5 258.6,-237.5 258.6,-237.5 252.6,-237.5 246.6,-231.5 246.6,-225.5 246.6,-225.5 246.6,-213.5 246.6,-213.5 246.6,-207.5 252.6,-201.5 258.6,-201.5 258.6,-201.5 335.4,-201.5 335.4,-201.5 341.4,-201.5 347.4,-207.5 347.4,-213.5 347.4,-213.5 347.4,-225.5 347.4,-225.5 347.4,-231.5 341.4,-237.5 335.4,-237.5"/>
<text xml:space="preserve" text-anchor="middle" x="297" y="-215.95" font-family="monospace" font-size="14.00">Sprint</text>
</g>
<!-- Run&#45;&gt;Sprint -->
<g id="edge11" class="edge">
<title>Run&#45;&gt;Sprint</title>
<path fill="none" stroke="black" d="M308.55,-293.93C308.55,-293.93 308.55,-249.3 308.55,-249.3"/>
<polygon fill="black" stroke="black" points="312.05,-249.3 308.55,-239.3 305.05,-249.3 312.05,-249.3"/>
<text xml:space="preserve" text-anchor="middle" x="265.75" y="-263.7" font-family="monospace" font-size="9.00">sprint</text>
</g>
<!-- Pivot_Run -->
<g id="node10" class="node">
<title>Pivot_Run</title>
<path fill="none" stroke="black" d="M472.4,-237.5C472.4,-237.5 395.6,-237.5 395.6,-237.5 389.6,-237.5 383.6,-231.5 383.6,-225.5 383.6,-225.5 383.6,-213.5 383.6,-213.5 383.6,-207.5 389.6,-201.5 395.6,-201.5 395.6,-201.5 472.4,-201.5 472.4,-201.5 478.4,-201.5 484.4,-207.5 484.4,-213.5 484.4,-213.5 484.4,-225.5 484.4,-225.5 484.4,-231.5 478.4,-237.5 472.4,-237.5"/>
<text xml:space="preserve" text-anchor="middle" x="434" y="-215.95" font-family="monospace" font-size="14.00">Pivot_Run</text>
</g>
<!-- Run&#45;&gt;Pivot_Run -->
<g id="edge15" class="edge">
<title>Run&#45;&gt;Pivot_Run</title>
<path fill="none" stroke="black" d="M386.8,-293.93C386.8,-293.93 386.8,-249.3 386.8,-249.3"/>
<polygon fill="black" stroke="black" points="390.3,-249.3 386.8,-239.3 383.3,-249.3 390.3,-249.3"/>
<text xml:space="preserve" text-anchor="middle" x="551.25" y="-263.7" font-family="monospace" font-size="9.00">180° input</text>
</g>
<!-- Run&#45;&gt;Jump_Windup -->
<g id="edge24" class="edge">
<title>Run&#45;&gt;Jump_Windup</title>
<path fill="none" stroke="black" d="M295.12,-321C295.12,-321 183.02,-321 183.02,-321"/>
<polygon fill="black" stroke="black" points="183.02,-317.5 173.02,-321 183.02,-324.5 183.02,-317.5"/>
</g>
<!-- Run&#45;&gt;Fall -->
<g id="edge20" class="edge">
<title>Run&#45;&gt;Fall</title>
<path fill="none" stroke="black" d="M295.32,-312C247.47,-312 183,-312 183,-312 183,-312 183,-46 183,-46 183,-46 181.86,-46 181.86,-46"/>
<polygon fill="black" stroke="black" points="183.14,-42.5 173.14,-46 183.14,-49.5 183.14,-42.5"/>
<text xml:space="preserve" text-anchor="middle" x="697.75" y="-170.95" font-family="monospace" font-size="9.00">!floor</text>
</g>
<!-- Stop_Run&#45;&gt;Idle -->
<g id="edge10" class="edge">
<title>Stop_Run&#45;&gt;Idle</title>
<path fill="none" stroke="black" d="M790.8,-330.48C790.8,-330.48 790.8,-419.69 790.8,-419.69"/>
<polygon fill="black" stroke="black" points="787.3,-419.69 790.8,-429.69 794.3,-419.69 787.3,-419.69"/>
<text xml:space="preserve" text-anchor="middle" x="795" y="-400.95" font-family="monospace" font-size="9.00">anim end</text>
</g>
<!-- Sprint&#45;&gt;Run -->
<g id="edge12" class="edge">
<title>Sprint&#45;&gt;Run</title>
<path fill="none" stroke="black" d="M321.5,-237.82C321.5,-237.82 321.5,-282.45 321.5,-282.45"/>
<polygon fill="black" stroke="black" points="318,-282.45 321.5,-292.45 325,-282.45 318,-282.45"/>
<text xml:space="preserve" text-anchor="middle" x="341.38" y="-263.7" font-family="monospace" font-size="9.00">release</text>
</g>
<!-- Stop_Sprint -->
<g id="node9" class="node">
<title>Stop_Sprint</title>
<path fill="none" stroke="black" d="M615.38,-237.5C615.38,-237.5 532.62,-237.5 532.62,-237.5 526.62,-237.5 520.62,-231.5 520.62,-225.5 520.62,-225.5 520.62,-213.5 520.62,-213.5 520.62,-207.5 526.62,-201.5 532.62,-201.5 532.62,-201.5 615.38,-201.5 615.38,-201.5 621.38,-201.5 627.38,-207.5 627.38,-213.5 627.38,-213.5 627.38,-225.5 627.38,-225.5 627.38,-231.5 621.38,-237.5 615.38,-237.5"/>
<text xml:space="preserve" text-anchor="middle" x="574" y="-215.95" font-family="monospace" font-size="14.00">Stop_Sprint</text>
</g>
<!-- Sprint&#45;&gt;Stop_Sprint -->
<g id="edge13" class="edge">
<title>Sprint&#45;&gt;Stop_Sprint</title>
<path fill="none" stroke="black" d="M334.45,-237.75C334.45,-246.88 334.45,-256 334.45,-256 334.45,-256 547.51,-256 547.51,-256 547.51,-256 547.51,-249.26 547.51,-249.26"/>
<polygon fill="black" stroke="black" points="551.01,-249.26 547.51,-239.26 544.01,-249.26 551.01,-249.26"/>
<text xml:space="preserve" text-anchor="middle" x="466" y="-263.7" font-family="monospace" font-size="9.00">input=0</text>
</g>
<!-- Pivot_Sprint -->
<g id="node11" class="node">
<title>Pivot_Sprint</title>
<path fill="none" stroke="black" d="M422.5,-144.75C422.5,-144.75 331.5,-144.75 331.5,-144.75 325.5,-144.75 319.5,-138.75 319.5,-132.75 319.5,-132.75 319.5,-120.75 319.5,-120.75 319.5,-114.75 325.5,-108.75 331.5,-108.75 331.5,-108.75 422.5,-108.75 422.5,-108.75 428.5,-108.75 434.5,-114.75 434.5,-120.75 434.5,-120.75 434.5,-132.75 434.5,-132.75 434.5,-138.75 428.5,-144.75 422.5,-144.75"/>
<text xml:space="preserve" text-anchor="middle" x="377" y="-123.2" font-family="monospace" font-size="14.00">Pivot_Sprint</text>
</g>
<!-- Sprint&#45;&gt;Pivot_Sprint -->
<g id="edge17" class="edge">
<title>Sprint&#45;&gt;Pivot_Sprint</title>
<path fill="none" stroke="black" d="M328.8,-201.18C328.8,-201.18 328.8,-156.55 328.8,-156.55"/>
<polygon fill="black" stroke="black" points="332.3,-156.55 328.8,-146.55 325.3,-156.55 332.3,-156.55"/>
<text xml:space="preserve" text-anchor="middle" x="323.25" y="-170.95" font-family="monospace" font-size="9.00">180° input</text>
</g>
<!-- Sprint&#45;&gt;Jump_Windup -->
<g id="edge25" class="edge">
<title>Sprint&#45;&gt;Jump_Windup</title>
<path fill="none" stroke="black" d="M271,-237.62C271,-262.18 271,-303 271,-303 271,-303 183.03,-303 183.03,-303"/>
<polygon fill="black" stroke="black" points="183.03,-299.5 173.03,-303 183.03,-306.5 183.03,-299.5"/>
<text xml:space="preserve" text-anchor="middle" x="198.5" y="-263.7" font-family="monospace" font-size="9.00">jump</text>
</g>
<!-- Sprint&#45;&gt;Fall -->
<g id="edge21" class="edge">
<title>Sprint&#45;&gt;Fall</title>
<path fill="none" stroke="black" d="M283.05,-201.04C283.05,-154.12 283.05,-34 283.05,-34 283.05,-34 183.34,-34 183.34,-34"/>
<polygon fill="black" stroke="black" points="183.34,-30.5 173.34,-34 183.34,-37.5 183.34,-30.5"/>
<text xml:space="preserve" text-anchor="middle" x="252.75" y="-124.58" font-family="monospace" font-size="9.00">!floor</text>
</g>
<!-- Stop_Sprint&#45;&gt;Idle -->
<g id="edge14" class="edge">
<title>Stop_Sprint&#45;&gt;Idle</title>
<path fill="none" stroke="black" d="M627.67,-220C665.63,-220 709.8,-220 709.8,-220 709.8,-220 709.8,-460 709.8,-460 709.8,-460 711.59,-460 711.59,-460"/>
<polygon fill="black" stroke="black" points="711.59,-463.5 721.59,-460 711.59,-456.5 711.59,-463.5"/>
<text xml:space="preserve" text-anchor="middle" x="667" y="-310.07" font-family="monospace" font-size="9.00">anim end</text>
</g>
<!-- Pivot_Run&#45;&gt;Run -->
<g id="edge16" class="edge">
<title>Pivot_Run&#45;&gt;Run</title>
<path fill="none" stroke="black" d="M390,-237.82C390,-237.82 390,-282.45 390,-282.45"/>
<polygon fill="black" stroke="black" points="386.5,-282.45 390,-292.45 393.5,-282.45 386.5,-282.45"/>
<text xml:space="preserve" text-anchor="middle" x="422" y="-263.7" font-family="monospace" font-size="9.00">anim end</text>
</g>
<!-- Pivot_Sprint&#45;&gt;Sprint -->
<g id="edge18" class="edge">
<title>Pivot_Sprint&#45;&gt;Sprint</title>
<path fill="none" stroke="black" d="M338.1,-145.07C338.1,-145.07 338.1,-189.7 338.1,-189.7"/>
<polygon fill="black" stroke="black" points="334.6,-189.7 338.1,-199.7 341.6,-189.7 334.6,-189.7"/>
<text xml:space="preserve" text-anchor="middle" x="412" y="-170.95" font-family="monospace" font-size="9.00">anim end</text>
</g>
<!-- Land_Soft -->
<g id="node12" class="node">
<title>Land_Soft</title>
<path fill="none" stroke="black" d="M656.4,-560.25C656.4,-560.25 579.6,-560.25 579.6,-560.25 573.6,-560.25 567.6,-554.25 567.6,-548.25 567.6,-548.25 567.6,-536.25 567.6,-536.25 567.6,-530.25 573.6,-524.25 579.6,-524.25 579.6,-524.25 656.4,-524.25 656.4,-524.25 662.4,-524.25 668.4,-530.25 668.4,-536.25 668.4,-536.25 668.4,-548.25 668.4,-548.25 668.4,-554.25 662.4,-560.25 656.4,-560.25"/>
<text xml:space="preserve" text-anchor="middle" x="618" y="-538.7" font-family="monospace" font-size="14.00">Land_Soft</text>
</g>
<!-- Land_Soft&#45;&gt;Idle -->
<g id="edge31" class="edge">
<title>Land_Soft&#45;&gt;Idle</title>
<path fill="none" stroke="black" d="M661.07,-524.15C661.07,-496.26 661.07,-446 661.07,-446 661.07,-446 711.64,-446 711.64,-446"/>
<polygon fill="black" stroke="black" points="711.64,-449.5 721.64,-446 711.64,-442.5 711.64,-449.5"/>
<text xml:space="preserve" text-anchor="middle" x="636.38" y="-493.7" font-family="monospace" font-size="9.00">input=0</text>
</g>
<!-- Land_Soft&#45;&gt;Walk -->
<g id="edge32" class="edge">
<title>Land_Soft&#45;&gt;Walk</title>
<path fill="none" stroke="black" d="M567.27,-542C504.61,-542 406.2,-542 406.2,-542 406.2,-542 406.2,-479.29 406.2,-479.29"/>
<polygon fill="black" stroke="black" points="409.7,-479.29 406.2,-469.29 402.7,-479.29 409.7,-479.29"/>
<text xml:space="preserve" text-anchor="middle" x="460.38" y="-493.7" font-family="monospace" font-size="9.00">input&gt;0</text>
</g>
<!-- Land_Heavy -->
<g id="node13" class="node">
<title>Land_Heavy</title>
<path fill="none" stroke="black" d="M812.4,-560.25C812.4,-560.25 735.6,-560.25 735.6,-560.25 729.6,-560.25 723.6,-554.25 723.6,-548.25 723.6,-548.25 723.6,-536.25 723.6,-536.25 723.6,-530.25 729.6,-524.25 735.6,-524.25 735.6,-524.25 812.4,-524.25 812.4,-524.25 818.4,-524.25 824.4,-530.25 824.4,-536.25 824.4,-536.25 824.4,-548.25 824.4,-548.25 824.4,-554.25 818.4,-560.25 812.4,-560.25"/>
<text xml:space="preserve" text-anchor="middle" x="774" y="-538.7" font-family="monospace" font-size="14.00">Land_Heavy</text>
</g>
<!-- Land_Heavy&#45;&gt;Idle -->
<g id="edge33" class="edge">
<title>Land_Heavy&#45;&gt;Idle</title>
<path fill="none" stroke="black" d="M799.2,-523.93C799.2,-523.93 799.2,-479.3 799.2,-479.3"/>
<polygon fill="black" stroke="black" points="802.7,-479.3 799.2,-469.3 795.7,-479.3 802.7,-479.3"/>
<text xml:space="preserve" text-anchor="middle" x="792.38" y="-493.7" font-family="monospace" font-size="9.00">input=0</text>
</g>
<!-- Land_Heavy&#45;&gt;Walk -->
<g id="edge34" class="edge">
<title>Land_Heavy&#45;&gt;Walk</title>
<path fill="none" stroke="black" d="M748.8,-523.83C748.8,-507.43 748.8,-486 748.8,-486 748.8,-486 439.8,-486 439.8,-486 439.8,-486 439.8,-479.26 439.8,-479.26"/>
<polygon fill="black" stroke="black" points="443.3,-479.26 439.8,-469.26 436.3,-479.26 443.3,-479.26"/>
<text xml:space="preserve" text-anchor="middle" x="714.38" y="-493.7" font-family="monospace" font-size="9.00">input&gt;0</text>
</g>
<!-- Ascend -->
<g id="node15" class="node">
<title>Ascend</title>
<path fill="none" stroke="black" d="M156.4,-237.5C156.4,-237.5 79.6,-237.5 79.6,-237.5 73.6,-237.5 67.6,-231.5 67.6,-225.5 67.6,-225.5 67.6,-213.5 67.6,-213.5 67.6,-207.5 73.6,-201.5 79.6,-201.5 79.6,-201.5 156.4,-201.5 156.4,-201.5 162.4,-201.5 168.4,-207.5 168.4,-213.5 168.4,-213.5 168.4,-225.5 168.4,-225.5 168.4,-231.5 162.4,-237.5 156.4,-237.5"/>
<text xml:space="preserve" text-anchor="middle" x="118" y="-215.95" font-family="monospace" font-size="14.00">Ascend</text>
</g>
<!-- Jump_Windup&#45;&gt;Ascend -->
<g id="edge26" class="edge">
<title>Jump_Windup&#45;&gt;Ascend</title>
<path fill="none" stroke="black" d="M118,-293.93C118,-293.93 118,-249.3 118,-249.3"/>
<polygon fill="black" stroke="black" points="121.5,-249.3 118,-239.3 114.5,-249.3 121.5,-249.3"/>
<text xml:space="preserve" text-anchor="middle" x="126" y="-263.7" font-family="monospace" font-size="9.00">anim end</text>
</g>
<!-- Apex -->
<g id="node16" class="node">
<title>Apex</title>
<path fill="none" stroke="black" d="M153.4,-144.75C153.4,-144.75 76.6,-144.75 76.6,-144.75 70.6,-144.75 64.6,-138.75 64.6,-132.75 64.6,-132.75 64.6,-120.75 64.6,-120.75 64.6,-114.75 70.6,-108.75 76.6,-108.75 76.6,-108.75 153.4,-108.75 153.4,-108.75 159.4,-108.75 165.4,-114.75 165.4,-120.75 165.4,-120.75 165.4,-132.75 165.4,-132.75 165.4,-138.75 159.4,-144.75 153.4,-144.75"/>
<text xml:space="preserve" text-anchor="middle" x="115" y="-123.2" font-family="monospace" font-size="14.00">Apex</text>
</g>
<!-- Ascend&#45;&gt;Apex -->
<g id="edge27" class="edge">
<title>Ascend&#45;&gt;Apex</title>
<path fill="none" stroke="black" d="M116.5,-201.18C116.5,-201.18 116.5,-156.55 116.5,-156.55"/>
<polygon fill="black" stroke="black" points="120,-156.55 116.5,-146.55 113,-156.55 120,-156.55"/>
<text xml:space="preserve" text-anchor="middle" x="139.5" y="-170.95" font-family="monospace" font-size="9.00">vel.y near 0</text>
</g>
<!-- Apex&#45;&gt;Fall -->
<g id="edge28" class="edge">
<title>Apex&#45;&gt;Fall</title>
<path fill="none" stroke="black" d="M118,-108.43C118,-108.43 118,-63.8 118,-63.8"/>
<polygon fill="black" stroke="black" points="121.5,-63.8 118,-53.8 114.5,-63.8 121.5,-63.8"/>
<text xml:space="preserve" text-anchor="middle" x="136.38" y="-78.2" font-family="monospace" font-size="9.00">vel.y&lt;0</text>
</g>
<!-- Fall&#45;&gt;Land_Soft -->
<g id="edge29" class="edge">
<title>Fall&#45;&gt;Land_Soft</title>
<path fill="none" stroke="black" d="M171.6,-28C304.58,-28 653.73,-28 653.73,-28 653.73,-28 653.73,-512.43 653.73,-512.43"/>
<polygon fill="black" stroke="black" points="650.23,-512.43 653.73,-522.43 657.23,-512.43 650.23,-512.43"/>
<text xml:space="preserve" text-anchor="middle" x="900" y="-263.7" font-family="monospace" font-size="9.00">low fall</text>
</g>
<!-- Fall&#45;&gt;Land_Heavy -->
<g id="edge30" class="edge">
<title>Fall&#45;&gt;Land_Heavy</title>
<path fill="none" stroke="black" d="M171.79,-22C309.94,-22 682.2,-22 682.2,-22 682.2,-22 682.2,-542 682.2,-542 682.2,-542 711.75,-542 711.75,-542"/>
<polygon fill="black" stroke="black" points="711.75,-545.5 721.75,-542 711.75,-538.5 711.75,-545.5"/>
<text xml:space="preserve" text-anchor="middle" x="985.62" y="-263.7" font-family="monospace" font-size="9.00">high fall</text>
</g>
</g>
</svg>
