<?xml version="1.0" encoding="UTF-8" standalone="no"?>
<!DOCTYPE svg PUBLIC "-//W3C//DTD SVG 1.1//EN"
 "http://www.w3.org/Graphics/SVG/1.1/DTD/svg11.dtd">
<!-- Generated by graphviz version 14.1.5 (0)
 -->
<!-- Title: phase2 Pages: 1 -->
<svg width="805pt" height="542pt"
 viewBox="0.00 0.00 805.00 542.00" xmlns="http://www.w3.org/2000/svg" xmlns:xlink="http://www.w3.org/1999/xlink">
<g id="graph0" class="graph" transform="scale(1 1) rotate(0) translate(4 538)">
<title>phase2</title>
<polygon fill="white" stroke="none" points="-4,4 -4,-538 801,-538 801,4 -4,4"/>
<g id="clust1" class="cluster">
<title>cluster_ground</title>
<polygon fill="none" stroke="gray" stroke-dasharray="5,2" points="262,-193.5 262,-526 729,-526 729,-193.5 262,-193.5"/>
<text xml:space="preserve" text-anchor="middle" x="495.5" y="-508.7" font-family="Times,serif" font-size="14.00">Ground</text>
</g>
<g id="clust5" class="cluster">
<title>cluster_air</title>
<polygon fill="none" stroke="gray" stroke-dasharray="5,2" points="8,-8 8,-296 254,-296 254,-8 8,-8"/>
<text xml:space="preserve" text-anchor="middle" x="131" y="-278.7" font-family="Times,serif" font-size="14.00">Air</text>
</g>
<!-- Idle -->
<g id="node1" class="node">
<title>Idle</title>
<path fill="none" stroke="black" d="M358.4,-374.75C358.4,-374.75 281.6,-374.75 281.6,-374.75 275.6,-374.75 269.6,-368.75 269.6,-362.75 269.6,-362.75 269.6,-350.75 269.6,-350.75 269.6,-344.75 275.6,-338.75 281.6,-338.75 281.6,-338.75 358.4,-338.75 358.4,-338.75 364.4,-338.75 370.4,-344.75 370.4,-350.75 370.4,-350.75 370.4,-362.75 370.4,-362.75 370.4,-368.75 364.4,-374.75 358.4,-374.75"/>
<text xml:space="preserve" text-anchor="middle" x="320" y="-353.2" font-family="monospace" font-size="14.00">Idle</text>
</g>
<!-- Start_Walk -->
<g id="node2" class="node">
<title>Start_Walk</title>
<path fill="none" stroke="black" d="M531.4,-374.75C531.4,-374.75 454.6,-374.75 454.6,-374.75 448.6,-374.75 442.6,-368.75 442.6,-362.75 442.6,-362.75 442.6,-350.75 442.6,-350.75 442.6,-344.75 448.6,-338.75 454.6,-338.75 454.6,-338.75 531.4,-338.75 531.4,-338.75 537.4,-338.75 543.4,-344.75 543.4,-350.75 543.4,-350.75 543.4,-362.75 543.4,-362.75 543.4,-368.75 537.4,-374.75 531.4,-374.75"/>
<text xml:space="preserve" text-anchor="middle" x="493" y="-353.2" font-family="monospace" font-size="14.00">Start_Walk</text>
</g>
<!-- Idle&#45;&gt;Start_Walk -->
<g id="edge1" class="edge">
<title>Idle&#45;&gt;Start_Walk</title>
<path fill="none" stroke="black" d="M370.5,-357C370.5,-357 430.62,-357 430.62,-357"/>
<polygon fill="black" stroke="black" points="430.62,-360.5 440.62,-357 430.62,-353.5 430.62,-360.5"/>
</g>
<!-- Start_Run -->
<g id="node5" class="node">
<title>Start_Run</title>
<path fill="none" stroke="black" d="M413.4,-237.5C413.4,-237.5 336.6,-237.5 336.6,-237.5 330.6,-237.5 324.6,-231.5 324.6,-225.5 324.6,-225.5 324.6,-213.5 324.6,-213.5 324.6,-207.5 330.6,-201.5 336.6,-201.5 336.6,-201.5 413.4,-201.5 413.4,-201.5 419.4,-201.5 425.4,-207.5 425.4,-213.5 425.4,-213.5 425.4,-225.5 425.4,-225.5 425.4,-231.5 419.4,-237.5 413.4,-237.5"/>
<text xml:space="preserve" text-anchor="middle" x="375" y="-215.95" font-family="monospace" font-size="14.00">Start_Run</text>
</g>
<!-- Idle&#45;&gt;Start_Run -->
<g id="edge5" class="edge">
<title>Idle&#45;&gt;Start_Run</title>
<path fill="none" stroke="black" d="M347.5,-338.52C347.5,-338.52 347.5,-249.31 347.5,-249.31"/>
<polygon fill="black" stroke="black" points="351,-249.31 347.5,-239.31 344,-249.31 351,-249.31"/>
<text xml:space="preserve" text-anchor="middle" x="448.5" y="-308.2" font-family="monospace" font-size="9.00">sprint+input</text>
</g>
<!-- Jump_Windup -->
<g id="node8" class="node">
<title>Jump_Windup</title>
<path fill="none" stroke="black" d="M234.38,-237.5C234.38,-237.5 151.62,-237.5 151.62,-237.5 145.62,-237.5 139.62,-231.5 139.62,-225.5 139.62,-225.5 139.62,-213.5 139.62,-213.5 139.62,-207.5 145.62,-201.5 151.62,-201.5 151.62,-201.5 234.38,-201.5 234.38,-201.5 240.38,-201.5 246.38,-207.5 246.38,-213.5 246.38,-213.5 246.38,-225.5 246.38,-225.5 246.38,-231.5 240.38,-237.5 234.38,-237.5"/>
<text xml:space="preserve" text-anchor="middle" x="193" y="-215.95" font-family="monospace" font-size="14.00">Jump_Windup</text>
</g>
<!-- Idle&#45;&gt;Jump_Windup -->
<g id="edge11" class="edge">
<title>Idle&#45;&gt;Jump_Windup</title>
<path fill="none" stroke="black" d="M269.3,-351C252.37,-351 237.72,-351 237.72,-351 237.72,-351 237.72,-249.3 237.72,-249.3"/>
<polygon fill="black" stroke="black" points="241.23,-249.3 237.73,-239.3 234.23,-249.3 241.23,-249.3"/>
<text xml:space="preserve" text-anchor="middle" x="303.5" y="-308.2" font-family="monospace" font-size="9.00">jump</text>
</g>
<!-- Walk -->
<g id="node3" class="node">
<title>Walk</title>
<path fill="none" stroke="black" d="M709.4,-374.75C709.4,-374.75 632.6,-374.75 632.6,-374.75 626.6,-374.75 620.6,-368.75 620.6,-362.75 620.6,-362.75 620.6,-350.75 620.6,-350.75 620.6,-344.75 626.6,-338.75 632.6,-338.75 632.6,-338.75 709.4,-338.75 709.4,-338.75 715.4,-338.75 721.4,-344.75 721.4,-350.75 721.4,-350.75 721.4,-362.75 721.4,-362.75 721.4,-368.75 715.4,-374.75 709.4,-374.75"/>
<text xml:space="preserve" text-anchor="middle" x="671" y="-353.2" font-family="monospace" font-size="14.00">Walk</text>
</g>
<!-- Start_Walk&#45;&gt;Walk -->
<g id="edge2" class="edge">
<title>Start_Walk&#45;&gt;Walk</title>
<path fill="none" stroke="black" d="M543.53,-357C543.53,-357 608.83,-357 608.83,-357"/>
<polygon fill="black" stroke="black" points="608.83,-360.5 618.83,-357 608.83,-353.5 608.83,-360.5"/>
</g>
<!-- Stop_Walk -->
<g id="node4" class="node">
<title>Stop_Walk</title>
<path fill="none" stroke="black" d="M639.4,-237.5C639.4,-237.5 562.6,-237.5 562.6,-237.5 556.6,-237.5 550.6,-231.5 550.6,-225.5 550.6,-225.5 550.6,-213.5 550.6,-213.5 550.6,-207.5 556.6,-201.5 562.6,-201.5 562.6,-201.5 639.4,-201.5 639.4,-201.5 645.4,-201.5 651.4,-207.5 651.4,-213.5 651.4,-213.5 651.4,-225.5 651.4,-225.5 651.4,-231.5 645.4,-237.5 639.4,-237.5"/>
<text xml:space="preserve" text-anchor="middle" x="601" y="-215.95" font-family="monospace" font-size="14.00">Stop_Walk</text>
</g>
<!-- Walk&#45;&gt;Stop_Walk -->
<g id="edge3" class="edge">
<title>Walk&#45;&gt;Stop_Walk</title>
<path fill="none" stroke="black" d="M641.13,-338.52C641.13,-338.52 641.13,-249.31 641.13,-249.31"/>
<polygon fill="black" stroke="black" points="644.63,-249.31 641.13,-239.31 637.63,-249.31 644.63,-249.31"/>
<text xml:space="preserve" text-anchor="middle" x="681.38" y="-308.2" font-family="monospace" font-size="9.00">input=0</text>
</g>
<!-- Walk&#45;&gt;Jump_Windup -->
<g id="edge12" class="edge">
<title>Walk&#45;&gt;Jump_Windup</title>
<path fill="none" stroke="black" d="M630.87,-338.33C630.87,-317.96 630.87,-288 630.87,-288 630.87,-288 242.05,-288 242.05,-288 242.05,-288 242.05,-249.37 242.05,-249.37"/>
<polygon fill="black" stroke="black" points="245.55,-249.37 242.05,-239.37 238.55,-249.37 245.55,-249.37"/>
<text xml:space="preserve" text-anchor="middle" x="365.5" y="-308.2" font-family="monospace" font-size="9.00">jump</text>
</g>
<!-- Run -->
<g id="node11" class="node">
<title>Run</title>
<path fill="none" stroke="black" d="M221.4,-374.75C221.4,-374.75 144.6,-374.75 144.6,-374.75 138.6,-374.75 132.6,-368.75 132.6,-362.75 132.6,-362.75 132.6,-350.75 132.6,-350.75 132.6,-344.75 138.6,-338.75 144.6,-338.75 144.6,-338.75 221.4,-338.75 221.4,-338.75 227.4,-338.75 233.4,-344.75 233.4,-350.75 233.4,-350.75 233.4,-362.75 233.4,-362.75 233.4,-368.75 227.4,-374.75 221.4,-374.75"/>
<text xml:space="preserve" text-anchor="middle" x="183" y="-353.2" font-family="monospace" font-size="14.00">Run</text>
</g>
<!-- Walk&#45;&gt;Run -->
<g id="edge7" class="edge">
<title>Walk&#45;&gt;Run</title>
<path fill="none" stroke="black" d="M671,-375.17C671,-391.57 671,-413 671,-413 671,-413 208.2,-413 208.2,-413 208.2,-413 208.2,-386.68 208.2,-386.68"/>
<polygon fill="black" stroke="black" points="211.7,-386.68 208.2,-376.68 204.7,-386.68 211.7,-386.68"/>
<text xml:space="preserve" text-anchor="middle" x="494" y="-400.95" font-family="monospace" font-size="9.00">sprint</text>
</g>
<!-- Stop_Walk&#45;&gt;Idle -->
<g id="edge4" class="edge">
<title>Stop_Walk&#45;&gt;Idle</title>
<path fill="none" stroke="black" d="M550.41,-220C502.65,-220 438.3,-220 438.3,-220 438.3,-220 438.3,-348 438.3,-348 438.3,-348 382.37,-348 382.37,-348"/>
<polygon fill="black" stroke="black" points="382.37,-344.5 372.37,-348 382.37,-351.5 382.37,-344.5"/>
<text xml:space="preserve" text-anchor="middle" x="568" y="-308.2" font-family="monospace" font-size="9.00">anim end</text>
</g>
<!-- Start_Run&#45;&gt;Run -->
<g id="edge6" class="edge">
<title>Start_Run&#45;&gt;Run</title>
<path fill="none" stroke="black" d="M324.36,-220C292.74,-220 258,-220 258,-220 258,-220 258,-363 258,-363 258,-363 245.37,-363 245.37,-363"/>
<polygon fill="black" stroke="black" points="245.37,-359.5 235.37,-363 245.37,-366.5 245.37,-359.5"/>
<text xml:space="preserve" text-anchor="middle" x="231" y="-308.2" font-family="monospace" font-size="9.00">anim end</text>
</g>
<!-- Stop_Run -->
<g id="node6" class="node">
<title>Stop_Run</title>
<path fill="none" stroke="black" d="M358.4,-467.5C358.4,-467.5 281.6,-467.5 281.6,-467.5 275.6,-467.5 269.6,-461.5 269.6,-455.5 269.6,-455.5 269.6,-443.5 269.6,-443.5 269.6,-437.5 275.6,-431.5 281.6,-431.5 281.6,-431.5 358.4,-431.5 358.4,-431.5 364.4,-431.5 370.4,-437.5 370.4,-443.5 370.4,-443.5 370.4,-455.5 370.4,-455.5 370.4,-461.5 364.4,-467.5 358.4,-467.5"/>
<text xml:space="preserve" text-anchor="middle" x="320" y="-445.95" font-family="monospace" font-size="14.00">Stop_Run</text>
</g>
<!-- Stop_Run&#45;&gt;Idle -->
<g id="edge10" class="edge">
<title>Stop_Run&#45;&gt;Idle</title>
<path fill="none" stroke="black" d="M320,-431.18C320,-431.18 320,-386.55 320,-386.55"/>
<polygon fill="black" stroke="black" points="323.5,-386.55 320,-376.55 316.5,-386.55 323.5,-386.55"/>
<text xml:space="preserve" text-anchor="middle" x="341" y="-400.95" font-family="monospace" font-size="9.00">anim end</text>
</g>
<!-- Land -->
<g id="node7" class="node">
<title>Land</title>
<path fill="none" stroke="black" d="M709.4,-467.5C709.4,-467.5 632.6,-467.5 632.6,-467.5 626.6,-467.5 620.6,-461.5 620.6,-455.5 620.6,-455.5 620.6,-443.5 620.6,-443.5 620.6,-437.5 626.6,-431.5 632.6,-431.5 632.6,-431.5 709.4,-431.5 709.4,-431.5 715.4,-431.5 721.4,-437.5 721.4,-443.5 721.4,-443.5 721.4,-455.5 721.4,-455.5 721.4,-461.5 715.4,-467.5 709.4,-467.5"/>
<text xml:space="preserve" text-anchor="middle" x="671" y="-445.95" font-family="monospace" font-size="14.00">Land</text>
</g>
<!-- Land&#45;&gt;Idle -->
<g id="edge18" class="edge">
<title>Land&#45;&gt;Idle</title>
<path fill="none" stroke="black" d="M620.12,-456C549.33,-456 429.7,-456 429.7,-456 429.7,-456 429.7,-366 429.7,-366 429.7,-366 382.19,-366 382.19,-366"/>
<polygon fill="black" stroke="black" points="382.19,-362.5 372.19,-366 382.19,-369.5 382.19,-362.5"/>
<text xml:space="preserve" text-anchor="middle" x="597.38" y="-400.95" font-family="monospace" font-size="9.00">input=0</text>
</g>
<!-- Land&#45;&gt;Walk -->
<g id="edge19" class="edge">
<title>Land&#45;&gt;Walk</title>
<path fill="none" stroke="black" d="M696.2,-431.18C696.2,-431.18 696.2,-386.55 696.2,-386.55"/>
<polygon fill="black" stroke="black" points="699.7,-386.55 696.2,-376.55 692.7,-386.55 699.7,-386.55"/>
<text xml:space="preserve" text-anchor="middle" x="689.38" y="-400.95" font-family="monospace" font-size="9.00">input&gt;0</text>
</g>
<!-- Ascend -->
<g id="node9" class="node">
<title>Ascend</title>
<path fill="none" stroke="black" d="M234.4,-144.75C234.4,-144.75 157.6,-144.75 157.6,-144.75 151.6,-144.75 145.6,-138.75 145.6,-132.75 145.6,-132.75 145.6,-120.75 145.6,-120.75 145.6,-114.75 151.6,-108.75 157.6,-108.75 157.6,-108.75 234.4,-108.75 234.4,-108.75 240.4,-108.75 246.4,-114.75 246.4,-120.75 246.4,-120.75 246.4,-132.75 246.4,-132.75 246.4,-138.75 240.4,-144.75 234.4,-144.75"/>
<text xml:space="preserve" text-anchor="middle" x="196" y="-123.2" font-family="monospace" font-size="14.00">Ascend</text>
</g>
<!-- Jump_Windup&#45;&gt;Ascend -->
<g id="edge14" class="edge">
<title>Jump_Windup&#45;&gt;Ascend</title>
<path fill="none" stroke="black" d="M195.99,-201.18C195.99,-201.18 195.99,-156.55 195.99,-156.55"/>
<polygon fill="black" stroke="black" points="199.49,-156.55 195.99,-146.55 192.49,-156.55 199.49,-156.55"/>
<text xml:space="preserve" text-anchor="middle" x="215" y="-170.95" font-family="monospace" font-size="9.00">anim end</text>
</g>
<!-- Fall -->
<g id="node10" class="node">
<title>Fall</title>
<path fill="none" stroke="black" d="M234.4,-52C234.4,-52 157.6,-52 157.6,-52 151.6,-52 145.6,-46 145.6,-40 145.6,-40 145.6,-28 145.6,-28 145.6,-22 151.6,-16 157.6,-16 157.6,-16 234.4,-16 234.4,-16 240.4,-16 246.4,-22 246.4,-28 246.4,-28 246.4,-40 246.4,-40 246.4,-46 240.4,-52 234.4,-52"/>
<text xml:space="preserve" text-anchor="middle" x="196" y="-30.45" font-family="monospace" font-size="14.00">Fall</text>
</g>
<!-- Ascend&#45;&gt;Fall -->
<g id="edge15" class="edge">
<title>Ascend&#45;&gt;Fall</title>
<path fill="none" stroke="black" d="M196,-108.43C196,-108.43 196,-63.8 196,-63.8"/>
<polygon fill="black" stroke="black" points="199.5,-63.8 196,-53.8 192.5,-63.8 199.5,-63.8"/>
<text xml:space="preserve" text-anchor="middle" x="214.38" y="-78.2" font-family="monospace" font-size="9.00">vel.y&lt;0</text>
</g>
<!-- Fall&#45;&gt;Land -->
<g id="edge17" class="edge">
<title>Fall&#45;&gt;Land</title>
<path fill="none" stroke="black" d="M246.77,-34C316.66,-34 434,-34 434,-34 434,-34 434,-444 434,-444 434,-444 608.64,-444 608.64,-444"/>
<polygon fill="black" stroke="black" points="608.64,-447.5 618.64,-444 608.64,-440.5 608.64,-447.5"/>
<text xml:space="preserve" text-anchor="middle" x="786.5" y="-217.32" font-family="monospace" font-size="9.00">land</text>
</g>
<!-- Fall&#45;&gt;Jump_Windup -->
<g id="edge16" class="edge">
<title>Fall&#45;&gt;Jump_Windup</title>
<path fill="none" stroke="black" d="M145.21,-34C139.74,-34 136.11,-34 136.11,-34 136.11,-34 136.11,-220 136.11,-220 136.11,-220 136.42,-220 136.42,-220"/>
<polygon fill="black" stroke="black" points="127.66,-223.5 137.66,-220 127.66,-216.5 127.66,-223.5"/>
<text xml:space="preserve" text-anchor="middle" x="80.88" y="-124.58" font-family="monospace" font-size="9.00">coyote time</text>
</g>
<!-- Run&#45;&gt;Walk -->
<g id="edge8" class="edge">
<title>Run&#45;&gt;Walk</title>
<path fill="none" stroke="black" d="M157.8,-374.94C157.8,-384.39 157.8,-394 157.8,-394 157.8,-394 645.8,-394 645.8,-394 645.8,-394 645.8,-386.45 645.8,-386.45"/>
<polygon fill="black" stroke="black" points="649.3,-386.45 645.8,-376.45 642.3,-386.45 649.3,-386.45"/>
<text xml:space="preserve" text-anchor="middle" x="399" y="-400.95" font-family="monospace" font-size="9.00">release</text>
</g>
<!-- Run&#45;&gt;Stop_Run -->
<g id="edge9" class="edge">
<title>Run&#45;&gt;Stop_Run</title>
<path fill="none" stroke="black" d="M183,-375.17C183,-402.35 183,-450 183,-450 183,-450 257.86,-450 257.86,-450"/>
<polygon fill="black" stroke="black" points="257.86,-453.5 267.86,-450 257.86,-446.5 257.86,-453.5"/>
<text xml:space="preserve" text-anchor="middle" x="230.38" y="-400.95" font-family="monospace" font-size="9.00">input=0</text>
</g>
<!-- Run&#45;&gt;Jump_Windup -->
<g id="edge13" class="edge">
<title>Run&#45;&gt;Jump_Windup</title>
<path fill="none" stroke="black" d="M186.51,-338.52C186.51,-338.52 186.51,-249.31 186.51,-249.31"/>
<polygon fill="black" stroke="black" points="190.01,-249.31 186.51,-239.31 183.01,-249.31 190.01,-249.31"/>
<text xml:space="preserve" text-anchor="middle" x="158.5" y="-308.2" font-family="monospace" font-size="9.00">jump</text>
</g>
</g>
</svg>
